<svg width="510" height="62" viewBox="0 0 510 62" fill="none" xmlns="http://www.w3.org/2000/svg">
<path fill-rule="evenodd" clip-rule="evenodd" d="M510 0H0V62H510V0ZM19.624 27H21.3203V14.2031H19.624V19.7051H13.1729V14.2031H11.4854V27H13.1729V21.085H19.624V27ZM24.8623 25.9102C25.6709 26.7539 26.7197 27.1758 28.0088 27.1758C29.6025 27.1758 30.7979 26.5635 31.5947 25.3389L30.6016 24.5654C30.3027 24.9521 29.9541 25.2627 29.5557 25.4971C29.1572 25.7314 28.6709 25.8486 28.0967 25.8486C27.2881 25.8486 26.6201 25.5615 26.0928 24.9873C25.5713 24.4072 25.2988 23.6484 25.2754 22.7109H31.7178V22.0342C31.7178 20.5166 31.375 19.3506 30.6895 18.5361C30.0039 17.7217 29.043 17.3145 27.8066 17.3145C27.0508 17.3145 26.3477 17.5254 25.6973 17.9473C25.0527 18.3633 24.5488 18.9434 24.1855 19.6875C23.8281 20.4258 23.6494 21.2666 23.6494 22.21V22.5088C23.6494 23.9268 24.0537 25.0605 24.8623 25.9102ZM26.1543 19.3711C26.5996 18.8906 27.1504 18.6504 27.8066 18.6504C28.4863 18.6504 29.0254 18.8789 29.4238 19.3359C29.8223 19.7871 30.0449 20.4258 30.0918 21.252V21.375H25.3281C25.4336 20.5137 25.709 19.8457 26.1543 19.3711ZM33.748 27H35.374V13.5H33.748V27ZM38.125 27H39.751V13.5H38.125V27ZM42.0542 20.8882C41.9717 21.29 41.9307 21.7129 41.9307 22.1572V22.2715C41.9307 23.748 42.3291 24.9346 43.126 25.8311C43.9287 26.7275 44.9746 27.1758 46.2637 27.1758C47.1191 27.1758 47.875 26.9707 48.5312 26.5605C48.9165 26.3218 49.2495 26.0283 49.5298 25.6807C49.731 25.4307 49.9048 25.1528 50.0518 24.8467C50.4092 24.1084 50.5879 23.2764 50.5879 22.3506V22.2363C50.5879 20.748 50.1865 19.5557 49.3838 18.6592C48.5869 17.7627 47.541 17.3145 46.2461 17.3145C45.4082 17.3145 44.6611 17.5166 44.0049 17.9209C43.6143 18.1636 43.2744 18.4678 42.9854 18.833C42.793 19.0762 42.623 19.3462 42.4756 19.6436C42.2856 20.0327 42.145 20.4478 42.0542 20.8882ZM44.2949 24.8906C43.8086 24.252 43.5654 23.4053 43.5654 22.3506C43.5654 21.1611 43.8115 20.2471 44.3037 19.6084C44.7959 18.9697 45.4434 18.6504 46.2461 18.6504C46.5674 18.6504 46.8633 18.7002 47.1343 18.7998C47.5552 18.9551 47.9155 19.2305 48.2148 19.626C48.7129 20.2705 48.9619 21.1143 48.9619 22.1572C48.9619 23.3232 48.7188 24.2314 48.2324 24.8818C47.7461 25.5264 47.0898 25.8486 46.2637 25.8486C45.8784 25.8486 45.5293 25.7783 45.2163 25.6377C44.8633 25.4785 44.5562 25.2295 44.2949 24.8906ZM51.6514 28.916L52.5742 29.5488C53.0137 29.1914 53.377 28.7168 53.6641 28.125C53.957 27.5332 54.1035 26.9414 54.1035 26.3496V25.0752H52.5127V26.543C52.4893 27.3574 52.2021 28.1484 51.6514 28.916ZM66.1182 17.4902L63.7627 24.7939L61.3457 17.4902H59.6846L63.1299 27H64.3691L67.7793 17.4902H66.1182ZM69.4844 27H71.1104V17.4902H69.4844V27ZM69.3813 14.707C69.3623 14.7891 69.3525 14.876 69.3525 14.9678C69.3525 15.1045 69.3735 15.229 69.416 15.3418C69.4556 15.4473 69.5137 15.542 69.5898 15.627C69.7539 15.8027 69.9941 15.8906 70.3105 15.8906C70.627 15.8906 70.8672 15.8027 71.0312 15.627C71.1953 15.4512 71.2773 15.2314 71.2773 14.9678C71.2773 14.7041 71.1953 14.4814 71.0312 14.2998C70.8672 14.1182 70.627 14.0273 70.3105 14.0273C69.9941 14.0273 69.7539 14.1182 69.5898 14.2998C69.4868 14.418 69.4175 14.5537 69.3813 14.707ZM78.7568 23.458C79.0908 23.6982 79.2578 24.0381 79.2578 24.4775C79.2578 24.8936 79.0703 25.2275 78.6953 25.4795C78.3262 25.7256 77.834 25.8486 77.2188 25.8486C76.5508 25.8486 76.0117 25.6904 75.6016 25.374C75.3501 25.1738 75.1714 24.9307 75.0654 24.6445C75.0005 24.4702 74.9624 24.2798 74.9512 24.0732H73.3252C73.3252 24.6357 73.4893 25.1602 73.8174 25.6465C74.022 25.9409 74.2744 26.1963 74.5742 26.4116C74.7632 26.5474 74.9707 26.6675 75.1973 26.7715C75.7832 27.041 76.457 27.1758 77.2188 27.1758C78.3027 27.1758 79.1846 26.9209 79.8643 26.4111C80.5439 25.8955 80.8838 25.2129 80.8838 24.3633C80.8838 23.8535 80.7607 23.4229 80.5146 23.0713C80.2744 22.7139 79.9023 22.4092 79.3984 22.1572C78.8945 21.9053 78.2354 21.6885 77.4209 21.5068C77.0625 21.4263 76.7529 21.3442 76.4922 21.2603C76.165 21.1548 75.915 21.0464 75.7422 20.9355C75.4316 20.7363 75.2764 20.4404 75.2764 20.0479C75.2764 19.6318 75.4434 19.2949 75.7773 19.0371C76.1113 18.7793 76.5742 18.6504 77.166 18.6504C77.7402 18.6504 78.2148 18.8115 78.5898 19.1338C78.7637 19.2808 78.8979 19.4409 78.9922 19.6138C79.105 19.8193 79.1611 20.043 79.1611 20.2852H80.7959C80.7959 19.418 80.459 18.7061 79.7852 18.1494C79.1172 17.5928 78.2441 17.3145 77.166 17.3145C76.4976 17.3145 75.9062 17.4292 75.3921 17.6582C75.1177 17.7808 74.8652 17.9355 74.6348 18.123C73.9785 18.6621 73.6504 19.3213 73.6504 20.1006C73.6504 20.5693 73.7646 20.9736 73.9932 21.3135C74.2275 21.6533 74.585 21.9463 75.0654 22.1924C75.5518 22.4385 76.2051 22.6494 77.0254 22.8252C77.8516 23.001 78.4287 23.2119 78.7568 23.458ZM83.1426 27H84.7686V17.4902H83.1426V27ZM83.248 14.2998C83.0898 14.4814 83.0107 14.7041 83.0107 14.9678C83.0107 15.2314 83.0898 15.4512 83.248 15.627C83.4121 15.8027 83.6523 15.8906 83.9688 15.8906C84.2852 15.8906 84.5254 15.8027 84.6895 15.627C84.7764 15.5337 84.8403 15.4277 84.8813 15.3096C84.9175 15.2056 84.9355 15.0913 84.9355 14.9678C84.9355 14.7041 84.8535 14.4814 84.6895 14.2998C84.5254 14.1182 84.2852 14.0273 83.9688 14.0273C83.6523 14.0273 83.4121 14.1182 83.248 14.2998ZM89.585 17.4902V15.1875H87.959V17.4902H86.2275V18.7471H87.959V24.6445C87.959 25.4531 88.1436 26.0771 88.5127 26.5166C88.8818 26.9561 89.4297 27.1758 90.1562 27.1758C90.3765 27.1758 90.6001 27.1587 90.8271 27.124C91.0171 27.0947 91.2095 27.0532 91.4043 27V25.6816C91.0762 25.752 90.8184 25.7871 90.6309 25.7871C90.25 25.7871 89.9805 25.6934 89.8223 25.5059C89.6641 25.3125 89.585 25.0254 89.585 24.6445V18.7471H91.3604V17.4902H89.585ZM92.7495 21.0781C92.6904 21.4224 92.6611 21.7822 92.6611 22.1572V22.2715C92.6611 23.748 93.0596 24.9346 93.8564 25.8311C94.6592 26.7275 95.7051 27.1758 96.9941 27.1758C97.8496 27.1758 98.6055 26.9707 99.2617 26.5605C99.9238 26.1504 100.431 25.5791 100.782 24.8467C101.14 24.1084 101.318 23.2764 101.318 22.3506V22.2363C101.318 20.748 100.917 19.5557 100.114 18.6592C99.3174 17.7627 98.2715 17.3145 96.9766 17.3145C96.1387 17.3145 95.3916 17.5166 94.7354 17.9209C94.085 18.3252 93.5752 18.8994 93.2061 19.6436C92.9888 20.0884 92.8369 20.5664 92.7495 21.0781ZM95.0254 24.8906C94.5391 24.252 94.2959 23.4053 94.2959 22.3506C94.2959 21.1611 94.542 20.2471 95.0342 19.6084C95.5264 18.9697 96.1738 18.6504 96.9766 18.6504C97.7969 18.6504 98.4531 18.9756 98.9453 19.626C99.4434 20.2705 99.6924 21.1143 99.6924 22.1572C99.6924 23.3232 99.4492 24.2314 98.9629 24.8818C98.4766 25.5264 97.8203 25.8486 96.9941 25.8486C96.6548 25.8486 96.3438 25.7939 96.0605 25.6846C95.6592 25.5298 95.314 25.2651 95.0254 24.8906ZM107.154 18.8877C107.441 18.8877 107.708 18.9082 107.954 18.9492V17.4375C107.79 17.3555 107.55 17.3145 107.233 17.3145C106.255 17.3145 105.499 17.7393 104.966 18.5889L104.939 17.4902H103.357V27H104.983V20.25C105.364 19.3418 106.088 18.8877 107.154 18.8877ZM108.648 25.4443C108.484 25.6318 108.402 25.8662 108.402 26.1475C108.402 26.417 108.484 26.6426 108.648 26.8242C108.818 27.0059 109.07 27.0967 109.404 27.0967C109.738 27.0967 109.99 27.0059 110.16 26.8242C110.336 26.6426 110.424 26.417 110.424 26.1475C110.424 25.8662 110.336 25.6318 110.16 25.4443C110.085 25.3618 109.995 25.2974 109.888 25.251C109.752 25.1924 109.591 25.1631 109.404 25.1631C109.07 25.1631 108.818 25.2568 108.648 25.4443ZM117.956 27H119.644V14.2031H117.956V27ZM128.582 23.6602L129.602 22.5967L132.915 27H134.822L130.691 21.4629L134.392 17.4902H132.414L129.452 20.6191L128.582 21.665V13.5H126.956V27H128.582V23.6602ZM137.661 18.6855L137.608 17.4902H136.07V27H137.696V20.2236C137.919 19.7666 138.229 19.3975 138.628 19.1162C139.026 18.835 139.489 18.6943 140.017 18.6943C140.667 18.6943 141.145 18.8584 141.449 19.1865C141.76 19.5146 141.918 20.0215 141.924 20.707V27H143.55V20.7158C143.532 18.4482 142.519 17.3145 140.509 17.3145C139.337 17.3145 138.388 17.7715 137.661 18.6855ZM145.676 20.9878C145.606 21.3599 145.571 21.7495 145.571 22.1572V22.2715C145.571 23.748 145.97 24.9346 146.767 25.8311C147.569 26.7275 148.615 27.1758 149.904 27.1758C150.404 27.1758 150.87 27.106 151.301 26.9658C151.609 26.8662 151.899 26.731 152.172 26.5605C152.834 26.1504 153.341 25.5791 153.692 24.8467C154.05 24.1084 154.229 23.2764 154.229 22.3506V22.2363C154.229 20.748 153.827 19.5557 153.024 18.6592C152.228 17.7627 151.182 17.3145 149.887 17.3145C149.049 17.3145 148.302 17.5166 147.646 17.9209C146.995 18.3252 146.485 18.8994 146.116 19.6436C145.912 20.062 145.765 20.5103 145.676 20.9878ZM147.276 23.2705C147.229 22.9839 147.206 22.6772 147.206 22.3506C147.206 21.1611 147.452 20.2471 147.944 19.6084C148.437 18.9697 149.084 18.6504 149.887 18.6504C150.707 18.6504 151.363 18.9756 151.855 19.626C152.354 20.2705 152.603 21.1143 152.603 22.1572C152.603 23.3232 152.359 24.2314 151.873 24.8818C151.602 25.2417 151.277 25.5015 150.899 25.6606C150.601 25.7861 150.269 25.8486 149.904 25.8486C149.084 25.8486 148.428 25.5293 147.936 24.8906C147.6 24.4497 147.38 23.9097 147.276 23.2705ZM166.516 17.4902L164.688 24.7588L162.429 17.4902H161.119L158.904 24.6094L157.032 17.4902H155.415L158.175 27H159.493L161.743 19.793L164.055 27H165.373L168.142 17.4902H166.516ZM179.594 17.4902L177.379 24.6182L175.006 17.4902H173.23L176.623 26.8945L176.263 27.8613C176.175 28.1221 176.076 28.3467 175.967 28.5356C175.828 28.7759 175.672 28.9585 175.498 29.083C175.193 29.3057 174.766 29.417 174.215 29.417L173.775 29.3818V30.7002L174.382 30.8145L174.689 30.8408C175.979 30.8408 176.919 30.0498 177.511 28.4678L181.334 17.4902H179.594ZM182.767 19.6436C182.403 20.3877 182.222 21.2256 182.222 22.1572V22.2715C182.222 23.748 182.62 24.9346 183.417 25.8311C184.22 26.7275 185.266 27.1758 186.555 27.1758C187.41 27.1758 188.166 26.9707 188.822 26.5605C189.484 26.1504 189.991 25.5791 190.343 24.8467C190.7 24.1084 190.879 23.2764 190.879 22.3506V22.2363C190.879 20.748 190.478 19.5557 189.675 18.6592C188.878 17.7627 187.832 17.3145 186.537 17.3145C185.699 17.3145 184.952 17.5166 184.296 17.9209C183.646 18.3252 183.136 18.8994 182.767 19.6436ZM184.586 24.8906C184.1 24.252 183.856 23.4053 183.856 22.3506C183.856 21.1611 184.103 20.2471 184.595 19.6084C185.087 18.9697 185.734 18.6504 186.537 18.6504C187.357 18.6504 188.014 18.9756 188.506 19.626C189.004 20.2705 189.253 21.1143 189.253 22.1572C189.253 23.3232 189.01 24.2314 188.523 24.8818C188.037 25.5264 187.381 25.8486 186.555 25.8486C185.734 25.8486 185.078 25.5293 184.586 24.8906ZM196.003 27.1758C197.228 27.1758 198.156 26.8037 198.789 26.0596L198.824 27H200.371V17.4902H198.745V24.4072C198.335 25.333 197.509 25.7959 196.267 25.7959C195.095 25.7959 194.509 25.0752 194.509 23.6338V17.4902H192.883V23.6777C192.889 24.832 193.155 25.7051 193.683 26.2969C194.216 26.8828 194.989 27.1758 196.003 27.1758ZM208.888 18.5449L208.844 17.4902H207.306V27H208.932V20.0566C209.324 19.1484 210.054 18.6943 211.12 18.6943C212.474 18.6943 213.15 19.3857 213.15 20.7686V27H214.785V20.6895C214.85 20.0801 215.081 19.5967 215.479 19.2393C215.878 18.876 216.379 18.6943 216.982 18.6943C217.426 18.6943 217.792 18.7568 218.081 18.8818C218.269 18.9629 218.424 19.0703 218.547 19.2041C218.857 19.5381 219.013 20.0449 219.013 20.7246V27H220.639V20.6279C220.604 18.4189 219.543 17.3145 217.457 17.3145C217.069 17.3145 216.71 17.3584 216.38 17.4468C216.121 17.5161 215.879 17.6128 215.655 17.7363C215.151 18.0176 214.741 18.3867 214.425 18.8438C213.944 17.8242 213.039 17.3145 211.709 17.3145C210.525 17.3145 209.585 17.7246 208.888 18.5449ZM223.24 27H224.866V17.4902H223.24V27ZM223.346 14.2998C223.188 14.4814 223.108 14.7041 223.108 14.9678C223.108 15.2314 223.188 15.4512 223.346 15.627C223.51 15.8027 223.75 15.8906 224.066 15.8906C224.246 15.8906 224.4 15.8623 224.53 15.8062C224.63 15.7627 224.716 15.7031 224.787 15.627C224.864 15.5444 224.923 15.4526 224.964 15.3511C225.01 15.2358 225.033 15.1079 225.033 14.9678C225.033 14.8813 225.024 14.7998 225.007 14.7222C224.971 14.563 224.897 14.4219 224.787 14.2998C224.623 14.1182 224.383 14.0273 224.066 14.0273C223.75 14.0273 223.51 14.1182 223.346 14.2998ZM228.118 18.6328C227.433 19.5059 227.09 20.6836 227.09 22.166C227.09 23.7129 227.433 24.9346 228.118 25.8311C228.81 26.7275 229.712 27.1758 230.825 27.1758C231.95 27.1758 232.838 26.8008 233.488 26.0508V26.8682C233.488 27.6768 233.266 28.3037 232.82 28.749C232.381 29.1943 231.766 29.417 230.975 29.417C229.967 29.417 229.114 28.9863 228.417 28.125L227.573 29.1006C227.768 29.3872 228.011 29.6396 228.304 29.8579C228.532 30.0273 228.789 30.1763 229.076 30.3047C229.732 30.5977 230.403 30.7441 231.089 30.7441C232.319 30.7441 233.298 30.3896 234.024 29.6807C234.757 28.9717 235.123 28.002 235.123 26.7715V17.4902H233.638L233.559 18.5449C232.908 17.7246 232.003 17.3145 230.843 17.3145C229.712 17.3145 228.804 17.7539 228.118 18.6328ZM229.384 24.8818C228.944 24.2666 228.725 23.4229 228.725 22.3506C228.725 21.1436 228.947 20.2324 229.393 19.6172C229.838 19.002 230.456 18.6943 231.247 18.6943C232.243 18.6943 232.99 19.1484 233.488 20.0566V24.3984C233.008 25.3301 232.255 25.7959 231.229 25.7959C230.438 25.7959 229.823 25.4912 229.384 24.8818ZM242.022 17.3145C240.868 17.3145 239.931 17.7568 239.21 18.6416V13.5H237.584V27H239.21V20.2236C239.342 19.9536 239.504 19.7139 239.697 19.5054C239.831 19.3608 239.979 19.231 240.142 19.1162C240.54 18.835 241.003 18.6943 241.53 18.6943C242.181 18.6943 242.658 18.8584 242.963 19.1865C243.124 19.3569 243.244 19.5752 243.323 19.8418C243.396 20.0889 243.435 20.3774 243.438 20.707V27H245.063V20.7158C245.046 18.4482 244.032 17.3145 242.022 17.3145ZM249.704 17.4902V15.1875H248.078V17.4902H246.347V18.7471H248.078V24.6445C248.078 25.4531 248.263 26.0771 248.632 26.5166C249.001 26.9561 249.549 27.1758 250.275 27.1758C250.68 27.1758 251.096 27.1172 251.523 27V25.6816C251.195 25.752 250.938 25.7871 250.75 25.7871C250.369 25.7871 250.1 25.6934 249.941 25.5059C249.783 25.3125 249.704 25.0254 249.704 24.6445V18.7471H251.479V17.4902H249.704ZM259.442 18.6855L259.39 17.4902H257.852V27H259.478V20.2236C259.7 19.7666 260.011 19.3975 260.409 19.1162C260.808 18.835 261.271 18.6943 261.798 18.6943C262.448 18.6943 262.926 18.8584 263.23 19.1865C263.541 19.5146 263.699 20.0215 263.705 20.707V27H265.331V20.7158C265.313 18.4482 264.3 17.3145 262.29 17.3145C261.118 17.3145 260.169 17.7715 259.442 18.6855ZM267.897 19.6436C267.534 20.3877 267.353 21.2256 267.353 22.1572V22.2715C267.353 23.748 267.751 24.9346 268.548 25.8311C269.351 26.7275 270.396 27.1758 271.686 27.1758C272.541 27.1758 273.297 26.9707 273.953 26.5605C274.615 26.1504 275.122 25.5791 275.474 24.8467C275.583 24.6211 275.675 24.3872 275.751 24.1445C275.924 23.5918 276.01 22.9937 276.01 22.3506V22.2363C276.01 20.748 275.608 19.5557 274.806 18.6592C274.009 17.7627 272.963 17.3145 271.668 17.3145C270.83 17.3145 270.083 17.5166 269.427 17.9209C269.056 18.1514 268.731 18.4365 268.452 18.7773C268.241 19.0347 268.056 19.3232 267.897 19.6436ZM269.717 24.8906C269.23 24.252 268.987 23.4053 268.987 22.3506C268.987 21.1611 269.233 20.2471 269.726 19.6084C270.218 18.9697 270.865 18.6504 271.668 18.6504C272.488 18.6504 273.145 18.9756 273.637 19.626C274.135 20.2705 274.384 21.1143 274.384 22.1572C274.384 22.6733 274.336 23.1387 274.241 23.5537C274.121 24.0762 273.925 24.519 273.654 24.8818C273.168 25.5264 272.512 25.8486 271.686 25.8486C270.865 25.8486 270.209 25.5293 269.717 24.8906ZM280.255 17.4902V15.1875H278.629V17.4902H276.897V18.7471H278.629V24.6445C278.629 25.4531 278.813 26.0771 279.183 26.5166C279.552 26.9561 280.1 27.1758 280.826 27.1758C281.23 27.1758 281.646 27.1172 282.074 27V25.6816C281.746 25.752 281.488 25.7871 281.301 25.7871C281.031 25.7871 280.817 25.7402 280.659 25.646C280.594 25.6074 280.538 25.5605 280.492 25.5059C280.334 25.3125 280.255 25.0254 280.255 24.6445V18.7471H282.03V17.4902H280.255ZM288.543 27H290.169V13.5H288.543V27ZM292.92 27H294.546V17.4902H292.92V27ZM293.025 14.2998C292.867 14.4814 292.788 14.7041 292.788 14.9678C292.788 15.1372 292.821 15.2891 292.886 15.4224C292.922 15.4961 292.969 15.5645 293.025 15.627C293.146 15.7554 293.306 15.8369 293.507 15.8716C293.582 15.8843 293.661 15.8906 293.746 15.8906C294.062 15.8906 294.303 15.8027 294.467 15.627C294.631 15.4512 294.713 15.2314 294.713 14.9678C294.713 14.7041 294.631 14.4814 294.467 14.2998C294.303 14.1182 294.062 14.0273 293.746 14.0273C293.43 14.0273 293.189 14.1182 293.025 14.2998ZM298.791 23.6602L299.811 22.5967L303.124 27H305.031L300.9 21.4629L304.601 17.4902H302.623L299.661 20.6191L298.791 21.665V13.5H297.165V27H298.791V23.6602ZM306.903 25.9102C307.712 26.7539 308.761 27.1758 310.05 27.1758C311.644 27.1758 312.839 26.5635 313.636 25.3389L312.643 24.5654C312.344 24.9521 311.995 25.2627 311.597 25.4971C311.407 25.6089 311.197 25.6938 310.968 25.7524C310.715 25.8164 310.438 25.8486 310.138 25.8486C309.64 25.8486 309.195 25.7397 308.804 25.522C308.56 25.3862 308.336 25.208 308.134 24.9873C307.612 24.4072 307.34 23.6484 307.316 22.7109H313.759V22.0342C313.759 20.5166 313.416 19.3506 312.73 18.5361C312.045 17.7217 311.084 17.3145 309.848 17.3145C309.092 17.3145 308.389 17.5254 307.738 17.9473C307.094 18.3633 306.59 18.9434 306.227 19.6875C305.869 20.4258 305.69 21.2666 305.69 22.21V22.5088C305.69 23.9268 306.095 25.0605 306.903 25.9102ZM308.195 19.3711C308.641 18.8906 309.191 18.6504 309.848 18.6504C310.527 18.6504 311.066 18.8789 311.465 19.3359C311.863 19.7871 312.086 20.4258 312.133 21.252V21.375H307.369C307.475 20.5137 307.75 19.8457 308.195 19.3711ZM320.254 27H321.88V17.4902H320.254V27ZM320.359 14.2998C320.201 14.4814 320.122 14.7041 320.122 14.9678C320.122 15.2314 320.201 15.4512 320.359 15.627C320.523 15.8027 320.764 15.8906 321.08 15.8906C321.24 15.8906 321.381 15.8682 321.502 15.8232C321.62 15.7793 321.72 15.7139 321.801 15.627C321.965 15.4512 322.047 15.2314 322.047 14.9678C322.047 14.7998 322.014 14.6484 321.947 14.5137C321.909 14.437 321.86 14.3657 321.801 14.2998C321.637 14.1182 321.396 14.0273 321.08 14.0273C320.764 14.0273 320.523 14.1182 320.359 14.2998ZM326.696 17.4902V15.1875H325.07V17.4902H323.339V18.7471H325.07V24.6445C325.07 25.4531 325.255 26.0771 325.624 26.5166C325.993 26.9561 326.541 27.1758 327.268 27.1758C327.508 27.1758 327.752 27.1553 328.001 27.1138C328.171 27.0854 328.342 27.0474 328.516 27V25.6816C328.188 25.752 327.93 25.7871 327.742 25.7871C327.361 25.7871 327.092 25.6934 326.934 25.5059C326.775 25.3125 326.696 25.0254 326.696 24.6445V18.7471H328.472V17.4902H326.696ZM341.893 25.8574C342.561 24.9727 342.895 23.8037 342.895 22.3506V22.21C342.895 20.6924 342.563 19.4971 341.901 18.624C341.552 18.1592 341.132 17.8184 340.642 17.6011C340.211 17.4102 339.726 17.3145 339.186 17.3145C338.716 17.3145 338.289 17.3818 337.902 17.5166C337.337 17.7129 336.859 18.0527 336.47 18.5361V13.5H334.844V27H336.338L336.417 25.9014C337.073 26.751 338.002 27.1758 339.203 27.1758C339.818 27.1758 340.365 27.0444 340.844 26.7817C341.24 26.564 341.59 26.2559 341.893 25.8574ZM341.166 20.957C341.234 21.3198 341.269 21.7227 341.269 22.166C341.269 23.3789 341.052 24.2871 340.618 24.8906C340.185 25.4941 339.578 25.7959 338.799 25.7959C338.26 25.7959 337.793 25.6655 337.399 25.4053C337.023 25.1562 336.713 24.7886 336.47 24.3018V20.1885C336.938 19.1924 337.709 18.6943 338.781 18.6943C339.584 18.6943 340.199 18.9961 340.627 19.5996C340.883 19.9614 341.063 20.4141 341.166 20.957ZM345.751 25.9102C346.56 26.7539 347.608 27.1758 348.897 27.1758C350.491 27.1758 351.687 26.5635 352.483 25.3389L351.49 24.5654C351.191 24.9521 350.843 25.2627 350.444 25.4971C350.046 25.7314 349.56 25.8486 348.985 25.8486C348.177 25.8486 347.509 25.5615 346.981 24.9873C346.46 24.4072 346.188 23.6484 346.164 22.7109H352.606V22.0342C352.606 20.5166 352.264 19.3506 351.578 18.5361C350.893 17.7217 349.932 17.3145 348.695 17.3145C347.939 17.3145 347.236 17.5254 346.586 17.9473C345.941 18.3633 345.438 18.9434 345.074 19.6875C344.717 20.4258 344.538 21.2666 344.538 22.21V22.5088C344.538 23.9268 344.942 25.0605 345.751 25.9102ZM347.043 19.3711C347.488 18.8906 348.039 18.6504 348.695 18.6504C348.827 18.6504 348.953 18.6587 349.073 18.6758C349.578 18.7471 349.991 18.9673 350.312 19.3359C350.711 19.7871 350.934 20.4258 350.98 21.252V21.375H346.217C346.322 20.5137 346.598 19.8457 347.043 19.3711ZM359.831 25.3213C359.397 25.6729 358.891 25.8486 358.311 25.8486C357.473 25.8486 356.828 25.5527 356.377 24.9609C355.926 24.3691 355.7 23.5254 355.7 22.4297V22.1221C355.7 20.9971 355.926 20.1387 356.377 19.5469C356.834 18.9492 357.476 18.6504 358.302 18.6504C358.917 18.6504 359.433 18.8496 359.849 19.248C360.271 19.6406 360.505 20.1445 360.552 20.7598H362.09C362.043 19.7402 361.665 18.9111 360.956 18.2725C360.253 17.6338 359.368 17.3145 358.302 17.3145C357.435 17.3145 356.682 17.5137 356.043 17.9121C355.41 18.3105 354.924 18.8701 354.584 19.5908C354.482 19.8071 354.396 20.0322 354.324 20.2666C354.158 20.8145 354.074 21.4121 354.074 22.0605V22.333C354.074 23.3218 354.24 24.1729 354.571 24.8862C354.742 25.2554 354.957 25.5879 355.217 25.8838C355.984 26.7451 357.016 27.1758 358.311 27.1758C358.955 27.1758 359.564 27.0293 360.139 26.7363C360.719 26.4434 361.182 26.0508 361.527 25.5586C361.873 25.0664 362.061 24.5479 362.09 24.0029H360.552C360.505 24.5303 360.265 24.9697 359.831 25.3213ZM369.561 25.998C369.619 26.4785 369.695 26.8125 369.789 27H371.494V26.8594C371.382 26.6006 371.299 26.2969 371.243 25.9478C371.188 25.6016 371.16 25.2114 371.16 24.7764V20.3994C371.137 19.4385 370.814 18.6855 370.193 18.1406C369.572 17.5898 368.714 17.3145 367.618 17.3145C366.927 17.3145 366.291 17.4434 365.711 17.7012C365.137 17.959 364.68 18.3105 364.34 18.7559C364.227 18.9043 364.133 19.0547 364.059 19.207C363.912 19.5059 363.839 19.8125 363.839 20.127H365.474C365.474 19.7109 365.67 19.3564 366.062 19.0635C366.455 18.7705 366.941 18.624 367.521 18.624C368.184 18.624 368.685 18.7939 369.024 19.1338C369.364 19.4678 369.534 19.9189 369.534 20.4873V21.2344H367.952C366.587 21.2344 365.526 21.5098 364.771 22.0605C364.021 22.6055 363.646 23.373 363.646 24.3633C363.646 25.1777 363.944 25.8516 364.542 26.3848C365.146 26.9121 365.916 27.1758 366.854 27.1758C367.902 27.1758 368.805 26.7832 369.561 25.998ZM367.661 25.7036C367.475 25.7417 367.285 25.7607 367.091 25.7607C366.558 25.7607 366.121 25.6172 365.781 25.3301C365.441 25.043 365.271 24.6445 365.271 24.1348C365.271 22.9688 366.268 22.3857 368.26 22.3857H369.534V24.3369C369.329 24.7588 368.998 25.1016 368.541 25.3652C368.258 25.5288 367.964 25.6416 367.661 25.7036ZM376.794 27.1758C378.019 27.1758 378.947 26.8037 379.58 26.0596L379.615 27H381.162V17.4902H379.536V24.4072C379.284 24.9771 378.874 25.3711 378.307 25.5903C377.952 25.7275 377.535 25.7959 377.058 25.7959C375.886 25.7959 375.3 25.0752 375.3 23.6338V17.4902H373.674V23.6777C373.68 24.832 373.946 25.7051 374.474 26.2969C374.749 26.5991 375.087 26.8232 375.49 26.9697C375.869 27.1069 376.303 27.1758 376.794 27.1758ZM388.677 23.458C389.011 23.6982 389.178 24.0381 389.178 24.4775C389.178 24.8936 388.99 25.2275 388.615 25.4795C388.246 25.7256 387.754 25.8486 387.139 25.8486C386.471 25.8486 385.932 25.6904 385.521 25.374C385.304 25.2007 385.141 24.9951 385.032 24.7573C384.938 24.5532 384.885 24.3252 384.871 24.0732H383.245C383.245 24.6357 383.409 25.1602 383.737 25.6465C384.071 26.127 384.531 26.502 385.117 26.7715C385.703 27.041 386.377 27.1758 387.139 27.1758C388.223 27.1758 389.104 26.9209 389.784 26.4111C390.464 25.8955 390.804 25.2129 390.804 24.3633C390.804 24.126 390.777 23.9058 390.724 23.7026C390.663 23.4697 390.566 23.2593 390.435 23.0713C390.272 22.8296 390.049 22.6118 389.765 22.418C389.63 22.3257 389.481 22.2388 389.318 22.1572C388.814 21.9053 388.155 21.6885 387.341 21.5068C386.532 21.3252 385.973 21.1348 385.662 20.9355C385.352 20.7363 385.196 20.4404 385.196 20.0479C385.196 19.8145 385.249 19.606 385.354 19.4224C385.436 19.2788 385.551 19.1504 385.697 19.0371C386.031 18.7793 386.494 18.6504 387.086 18.6504C387.66 18.6504 388.135 18.8115 388.51 19.1338C388.706 19.2998 388.852 19.4824 388.947 19.6812C389.036 19.8682 389.081 20.0693 389.081 20.2852H390.716C390.716 19.418 390.379 18.7061 389.705 18.1494C389.381 17.8794 389.008 17.6748 388.587 17.5356C388.141 17.3882 387.641 17.3145 387.086 17.3145C386.061 17.3145 385.217 17.584 384.555 18.123C383.898 18.6621 383.57 19.3213 383.57 20.1006C383.57 20.5693 383.685 20.9736 383.913 21.3135C384.147 21.6533 384.505 21.9463 384.985 22.1924C385.472 22.4385 386.125 22.6494 386.945 22.8252C387.321 22.9053 387.646 22.9927 387.918 23.0869C388.245 23.2002 388.498 23.3237 388.677 23.458ZM393.722 25.9102C394.53 26.7539 395.579 27.1758 396.868 27.1758C398.462 27.1758 399.657 26.5635 400.454 25.3389L399.461 24.5654C399.162 24.9521 398.813 25.2627 398.415 25.4971C398.166 25.644 397.881 25.7446 397.563 25.7993C397.373 25.832 397.171 25.8486 396.956 25.8486C396.147 25.8486 395.479 25.5615 394.952 24.9873C394.431 24.4072 394.158 23.6484 394.135 22.7109H400.577V22.0342C400.577 20.5166 400.234 19.3506 399.549 18.5361C398.863 17.7217 397.902 17.3145 396.666 17.3145C395.91 17.3145 395.207 17.5254 394.557 17.9473C393.912 18.3633 393.408 18.9434 393.045 19.6875C392.688 20.4258 392.509 21.2666 392.509 22.21V22.5088C392.509 23.9268 392.913 25.0605 393.722 25.9102ZM395.014 19.3711C395.459 18.8906 396.01 18.6504 396.666 18.6504C397.007 18.6504 397.313 18.708 397.583 18.8232C397.852 18.9375 398.085 19.1084 398.283 19.3359C398.682 19.7871 398.904 20.4258 398.951 21.252V21.375H394.188C394.293 20.5137 394.568 19.8457 395.014 19.3711ZM407.072 27H408.698V17.4902H407.072V27ZM407.178 14.2998C407.02 14.4814 406.94 14.7041 406.94 14.9678C406.94 15.2314 407.02 15.4512 407.178 15.627C407.342 15.8027 407.582 15.8906 407.898 15.8906C408.074 15.8906 408.227 15.8633 408.355 15.8091C408.458 15.7661 408.546 15.7051 408.619 15.627C408.783 15.4512 408.865 15.2314 408.865 14.9678C408.865 14.7041 408.783 14.4814 408.619 14.2998C408.455 14.1182 408.215 14.0273 407.898 14.0273C407.582 14.0273 407.342 14.1182 407.178 14.2998ZM413.515 17.4902V15.1875H411.889V17.4902H410.157V18.7471H411.889V24.6445C411.889 25.4531 412.073 26.0771 412.442 26.5166C412.633 26.7437 412.871 26.9116 413.157 27.0215C413.425 27.1245 413.734 27.1758 414.086 27.1758C414.49 27.1758 414.906 27.1172 415.334 27V25.6816C415.006 25.752 414.748 25.7871 414.561 25.7871C414.18 25.7871 413.91 25.6934 413.752 25.5059C413.594 25.3125 413.515 25.0254 413.515 24.6445V18.7471H415.29V17.4902H413.515ZM428.711 25.8574C429.379 24.9727 429.713 23.8037 429.713 22.3506V22.21C429.713 20.6924 429.382 19.4971 428.72 18.624C428.063 17.751 427.158 17.3145 426.004 17.3145C424.85 17.3145 423.944 17.7217 423.288 18.5361V13.5H421.662V27H423.156L423.235 25.9014C423.892 26.751 424.82 27.1758 426.021 27.1758C427.146 27.1758 428.043 26.7363 428.711 25.8574ZM427.445 19.5996C427.873 20.2031 428.087 21.0586 428.087 22.166C428.087 23.3789 427.87 24.2871 427.437 24.8906C427.003 25.4941 426.396 25.7959 425.617 25.7959C424.562 25.7959 423.786 25.2979 423.288 24.3018V20.1885C423.757 19.1924 424.527 18.6943 425.6 18.6943C425.996 18.6943 426.346 18.7676 426.65 18.9146C426.963 19.0654 427.229 19.2935 427.445 19.5996ZM434.854 27.1758C436.079 27.1758 437.008 26.8037 437.641 26.0596L437.676 27H439.223V17.4902H437.597V24.4072C437.187 25.333 436.36 25.7959 435.118 25.7959C433.946 25.7959 433.36 25.0752 433.36 23.6338V17.4902H431.734V23.6777C431.74 24.832 432.007 25.7051 432.534 26.2969C433.067 26.8828 433.841 27.1758 434.854 27.1758ZM445.498 18.8877C445.785 18.8877 446.052 18.9082 446.298 18.9492V17.4375C446.216 17.3965 446.116 17.3657 445.997 17.3452C445.876 17.3247 445.736 17.3145 445.577 17.3145C444.599 17.3145 443.843 17.7393 443.31 18.5889L443.283 17.4902H441.701V27H443.327V20.25C443.708 19.3418 444.432 18.8877 445.498 18.8877ZM449.392 18.6855L449.339 17.4902H447.801V27H449.427V20.2236C449.547 19.9756 449.694 19.7534 449.867 19.5571C450.012 19.3916 450.176 19.2446 450.358 19.1162C450.757 18.835 451.22 18.6943 451.747 18.6943C452.397 18.6943 452.875 18.8584 453.18 19.1865C453.49 19.5146 453.648 20.0215 453.654 20.707V27H455.28V20.7158C455.263 18.4482 454.249 17.3145 452.239 17.3145C451.067 17.3145 450.118 17.7715 449.392 18.6855ZM462.769 23.458C463.103 23.6982 463.27 24.0381 463.27 24.4775C463.27 24.8936 463.082 25.2275 462.707 25.4795C462.338 25.7256 461.846 25.8486 461.23 25.8486C460.562 25.8486 460.023 25.6904 459.613 25.374C459.209 25.0518 458.992 24.6182 458.963 24.0732H457.337C457.337 24.6357 457.501 25.1602 457.829 25.6465C458.163 26.127 458.623 26.502 459.209 26.7715C459.795 27.041 460.469 27.1758 461.23 27.1758C462.314 27.1758 463.196 26.9209 463.876 26.4111C464.556 25.8955 464.896 25.2129 464.896 24.3633C464.896 23.8535 464.772 23.4229 464.526 23.0713C464.286 22.7139 463.914 22.4092 463.41 22.1572C463.081 21.9927 462.685 21.8428 462.223 21.708C461.978 21.6367 461.715 21.5698 461.433 21.5068C460.764 21.3564 460.266 21.2007 459.938 21.0386C459.869 21.0044 459.808 20.9702 459.754 20.9355C459.443 20.7363 459.288 20.4404 459.288 20.0479C459.288 19.6318 459.455 19.2949 459.789 19.0371C460.123 18.7793 460.586 18.6504 461.178 18.6504C461.752 18.6504 462.227 18.8115 462.602 19.1338C462.982 19.4561 463.173 19.8398 463.173 20.2852H464.808C464.808 19.418 464.471 18.7061 463.797 18.1494C463.517 17.916 463.201 17.7314 462.849 17.5962C462.361 17.4082 461.804 17.3145 461.178 17.3145C460.152 17.3145 459.309 17.584 458.646 18.123C457.99 18.6621 457.662 19.3213 457.662 20.1006C457.662 20.5693 457.776 20.9736 458.005 21.3135C458.239 21.6533 458.597 21.9463 459.077 22.1924C459.563 22.4385 460.217 22.6494 461.037 22.8252C461.863 23.001 462.44 23.2119 462.769 23.458ZM16.5566 38.4902L14.3418 45.6182L11.9688 38.4902H10.1934L13.5859 47.8945L13.2256 48.8613C13.0264 49.4531 12.7715 49.8604 12.4609 50.083C12.1562 50.3057 11.7285 50.417 11.1777 50.417L10.7383 50.3818V51.7002L11.3447 51.8145L11.6523 51.8408C12.9414 51.8408 13.8818 51.0498 14.4736 49.4678L18.2969 38.4902H16.5566ZM19.7295 40.6436C19.3662 41.3877 19.1846 42.2256 19.1846 43.1572V43.2715C19.1846 44.748 19.583 45.9346 20.3799 46.8311C21.1826 47.7275 22.2285 48.1758 23.5176 48.1758C24.373 48.1758 25.1289 47.9707 25.7852 47.5605C26.4473 47.1504 26.9541 46.5791 27.3057 45.8467C27.6631 45.1084 27.8418 44.2764 27.8418 43.3506V43.2363C27.8418 41.748 27.4404 40.5557 26.6377 39.6592C25.8408 38.7627 24.7949 38.3145 23.5 38.3145C22.6621 38.3145 21.915 38.5166 21.2588 38.9209C20.6084 39.3252 20.0986 39.8994 19.7295 40.6436ZM20.9453 44.5571C20.8613 44.1909 20.8193 43.7886 20.8193 43.3506C20.8193 42.1611 21.0654 41.2471 21.5576 40.6084C22.0498 39.9697 22.6973 39.6504 23.5 39.6504C24.3203 39.6504 24.9766 39.9756 25.4688 40.626C25.9668 41.2705 26.2158 42.1143 26.2158 43.1572C26.2158 44.3232 25.9727 45.2314 25.4863 45.8818C25 46.5264 24.3438 46.8486 23.5176 46.8486C22.6973 46.8486 22.041 46.5293 21.5488 45.8906C21.2646 45.5171 21.0635 45.0728 20.9453 44.5571ZM32.9658 48.1758C34.1904 48.1758 35.1191 47.8037 35.752 47.0596L35.7871 48H37.334V38.4902H35.708V45.4072C35.2979 46.333 34.4717 46.7959 33.2295 46.7959C32.0576 46.7959 31.4717 46.0752 31.4717 44.6338V38.4902H29.8457V44.6777C29.8516 45.832 30.1182 46.7051 30.6455 47.2969C31.1787 47.8828 31.9521 48.1758 32.9658 48.1758ZM43.6094 39.8877C43.8965 39.8877 44.1631 39.9082 44.4092 39.9492V38.4375C44.2891 38.3774 44.1279 38.3394 43.9258 38.3232C43.8521 38.3174 43.7729 38.3145 43.6885 38.3145C42.71 38.3145 41.9541 38.7393 41.4209 39.5889L41.3945 38.4902H39.8125V48H41.4385V41.25C41.8193 40.3418 42.543 39.8877 43.6094 39.8877ZM51.1768 46.9102C51.9854 47.7539 53.0342 48.1758 54.3232 48.1758C55.917 48.1758 57.1123 47.5635 57.9092 46.3389L56.916 45.5654C56.6172 45.9521 56.2686 46.2627 55.8701 46.4971C55.4717 46.7314 54.9854 46.8486 54.4111 46.8486C53.6025 46.8486 52.9346 46.5615 52.4072 45.9873C51.8857 45.4072 51.6133 44.6484 51.5898 43.7109H58.0322V43.0342C58.0322 41.5166 57.6895 40.3506 57.0039 39.5361C56.3184 38.7217 55.3574 38.3145 54.1211 38.3145C53.3652 38.3145 52.6621 38.5254 52.0117 38.9473C51.3672 39.3633 50.8633 39.9434 50.5 40.6875C50.1426 41.4258 49.9639 42.2666 49.9639 43.21V43.5088C49.9639 44.9268 50.3682 46.0605 51.1768 46.9102ZM52.4688 40.3711C52.9141 39.8906 53.4648 39.6504 54.1211 39.6504C54.8008 39.6504 55.3398 39.8789 55.7383 40.3359C56.1367 40.7871 56.3594 41.4258 56.4062 42.252V42.375H51.6426C51.7075 41.8442 51.8374 41.3867 52.0312 41.0029C52.1519 40.7637 52.2979 40.5532 52.4688 40.3711ZM65.125 38.4902L62.9102 45.6182L60.5371 38.4902H58.7617L62.1543 47.8945L61.7939 48.8613C61.5947 49.4531 61.3398 49.8604 61.0293 50.083C60.8232 50.2334 60.5615 50.333 60.2432 50.3818C60.0903 50.4053 59.9248 50.417 59.7461 50.417L59.3066 50.3818V51.7002L59.9131 51.8145L60.2207 51.8408C61.5098 51.8408 62.4502 51.0498 63.042 49.4678L66.8652 38.4902H65.125ZM69.001 46.9102C69.8096 47.7539 70.8584 48.1758 72.1475 48.1758C73.7412 48.1758 74.9365 47.5635 75.7334 46.3389L74.7402 45.5654C74.4414 45.9521 74.0928 46.2627 73.6943 46.4971C73.2959 46.7314 72.8096 46.8486 72.2354 46.8486C71.4268 46.8486 70.7588 46.5615 70.2314 45.9873C69.71 45.4072 69.4375 44.6484 69.4141 43.7109H75.8564V43.0342C75.8564 41.5166 75.5137 40.3506 74.8281 39.5361C74.1426 38.7217 73.1816 38.3145 71.9453 38.3145C71.5703 38.3145 71.2085 38.3662 70.8599 38.4697C70.5054 38.5752 70.1641 38.7344 69.8359 38.9473C69.4238 39.2134 69.0693 39.5464 68.772 39.9463C68.6045 40.1719 68.4551 40.4189 68.3242 40.6875C67.9668 41.4258 67.7881 42.2666 67.7881 43.21V43.5088C67.7881 44.9268 68.1924 46.0605 69.001 46.9102ZM70.293 40.3711C70.7383 39.8906 71.2891 39.6504 71.9453 39.6504C72.3291 39.6504 72.668 39.7231 72.9619 39.8687C73.189 39.981 73.3892 40.1367 73.5625 40.3359C73.9609 40.7871 74.1836 41.4258 74.2305 42.252V42.375H69.4668C69.5239 41.9097 69.6304 41.501 69.7866 41.1484C69.9194 40.8486 70.0884 40.5894 70.293 40.3711ZM82.7822 44.458C83.1162 44.6982 83.2832 45.0381 83.2832 45.4775C83.2832 45.8936 83.0957 46.2275 82.7207 46.4795C82.3516 46.7256 81.8594 46.8486 81.2441 46.8486C80.5762 46.8486 80.0371 46.6904 79.627 46.374C79.2227 46.0518 79.0059 45.6182 78.9766 45.0732H77.3506C77.3506 45.6357 77.5146 46.1602 77.8428 46.6465C78.1768 47.127 78.6367 47.502 79.2227 47.7715C79.8086 48.041 80.4824 48.1758 81.2441 48.1758C82.3281 48.1758 83.21 47.9209 83.8896 47.4111C84.1934 47.1807 84.4292 46.917 84.5972 46.6201C84.8052 46.2524 84.9092 45.8335 84.9092 45.3633C84.9092 44.8535 84.7861 44.4229 84.54 44.0713C84.2998 43.7139 83.9277 43.4092 83.4238 43.1572C82.9199 42.9053 82.2607 42.6885 81.4463 42.5068C80.6377 42.3252 80.0781 42.1348 79.7676 41.9355C79.457 41.7363 79.3018 41.4404 79.3018 41.0479C79.3018 40.6318 79.4688 40.2949 79.8027 40.0371C80.1367 39.7793 80.5996 39.6504 81.1914 39.6504C81.7656 39.6504 82.2402 39.8115 82.6152 40.1338C82.9961 40.4561 83.1865 40.8398 83.1865 41.2852H84.8213C84.8213 40.418 84.4844 39.7061 83.8105 39.1494C83.1426 38.5928 82.2695 38.3145 81.1914 38.3145C80.7095 38.3145 80.2676 38.374 79.8657 38.4932C79.4131 38.6274 79.0112 38.8374 78.6602 39.123C78.0039 39.6621 77.6758 40.3213 77.6758 41.1006C77.6758 41.3486 77.708 41.5786 77.772 41.7905C77.8286 41.979 77.9111 42.1533 78.0186 42.3135C78.2529 42.6533 78.6104 42.9463 79.0908 43.1924C79.3467 43.3218 79.6489 43.4414 79.9971 43.5513C80.311 43.6504 80.6621 43.7417 81.0508 43.8252C81.877 44.001 82.4541 44.2119 82.7822 44.458ZM98.541 46.8574C99.209 45.9727 99.543 44.8037 99.543 43.3506V43.21C99.543 42.1807 99.3906 41.2993 99.0859 40.5664C98.9414 40.2188 98.7627 39.9048 98.5498 39.624C97.8936 38.751 96.9883 38.3145 95.834 38.3145C95.3389 38.3145 94.8896 38.3896 94.4858 38.5396C93.9487 38.7388 93.4927 39.0713 93.1182 39.5361V34.5H91.4922V48H92.9863L93.0654 46.9014C93.7217 47.751 94.6504 48.1758 95.8516 48.1758C96.9766 48.1758 97.873 47.7363 98.541 46.8574ZM97.2754 40.5996C97.7031 41.2031 97.917 42.0586 97.917 43.166C97.917 43.9131 97.835 44.5444 97.6704 45.0601C97.5679 45.3818 97.4331 45.6587 97.2666 45.8906C96.833 46.4941 96.2266 46.7959 95.4473 46.7959C94.3926 46.7959 93.6162 46.2979 93.1182 45.3018V41.1885C93.5869 40.1924 94.3574 39.6943 95.4297 39.6943C96.2324 39.6943 96.8477 39.9961 97.2754 40.5996ZM104.685 48.1758C105.909 48.1758 106.838 47.8037 107.471 47.0596L107.506 48H109.053V38.4902H107.427V45.4072C107.017 46.333 106.19 46.7959 104.948 46.7959C103.776 46.7959 103.19 46.0752 103.19 44.6338V38.4902H101.564V44.6777C101.57 45.832 101.837 46.7051 102.364 47.2969C102.897 47.8828 103.671 48.1758 104.685 48.1758ZM113.737 38.4902V36.1875H112.111V38.4902H110.38V39.7471H112.111V45.6445C112.111 46.4531 112.296 47.0771 112.665 47.5166C113.034 47.9561 113.582 48.1758 114.309 48.1758C114.713 48.1758 115.129 48.1172 115.557 48V46.6816C115.229 46.752 114.971 46.7871 114.783 46.7871C114.402 46.7871 114.133 46.6934 113.975 46.5059C113.816 46.3125 113.737 46.0254 113.737 45.6445V39.7471H115.513V38.4902H113.737ZM124.091 38.4902V36.1875H122.465V38.4902H120.733V39.7471H122.465V45.6445C122.465 46.4531 122.649 47.0771 123.019 47.5166C123.388 47.9561 123.936 48.1758 124.662 48.1758C125.066 48.1758 125.482 48.1172 125.91 48V46.6816C125.582 46.752 125.324 46.7871 125.137 46.7871C124.756 46.7871 124.486 46.6934 124.328 46.5059C124.17 46.3125 124.091 46.0254 124.091 45.6445V39.7471H125.866V38.4902H124.091ZM132.212 38.3145C131.058 38.3145 130.12 38.7568 129.399 39.6416V34.5H127.773V48H129.399V41.2236C129.622 40.7666 129.933 40.3975 130.331 40.1162C130.729 39.835 131.192 39.6943 131.72 39.6943C132.37 39.6943 132.848 39.8584 133.152 40.1865C133.463 40.5146 133.621 41.0215 133.627 41.707V48H135.253V41.7158C135.235 39.4482 134.222 38.3145 132.212 38.3145ZM137.828 48H139.454V38.4902H137.828V48ZM137.934 35.2998C137.775 35.4814 137.696 35.7041 137.696 35.9678C137.696 36.2314 137.775 36.4512 137.934 36.627C138.098 36.8027 138.338 36.8906 138.654 36.8906C138.842 36.8906 139.003 36.8594 139.138 36.7974C139.229 36.7554 139.309 36.6982 139.375 36.627C139.539 36.4512 139.621 36.2314 139.621 35.9678C139.621 35.8096 139.591 35.666 139.532 35.5371C139.493 35.4517 139.44 35.3726 139.375 35.2998C139.211 35.1182 138.971 35.0273 138.654 35.0273C138.338 35.0273 138.098 35.1182 137.934 35.2998ZM147.101 44.458C147.435 44.6982 147.602 45.0381 147.602 45.4775C147.602 45.8936 147.414 46.2275 147.039 46.4795C146.67 46.7256 146.178 46.8486 145.562 46.8486C144.895 46.8486 144.355 46.6904 143.945 46.374C143.541 46.0518 143.324 45.6182 143.295 45.0732H141.669C141.669 45.6357 141.833 46.1602 142.161 46.6465C142.495 47.127 142.955 47.502 143.541 47.7715C144.127 48.041 144.801 48.1758 145.562 48.1758C146.646 48.1758 147.528 47.9209 148.208 47.4111C148.667 47.0625 148.972 46.6377 149.121 46.1362C149.192 45.896 149.228 45.6382 149.228 45.3633C149.228 45.1895 149.213 45.0249 149.185 44.8696C149.129 44.5693 149.021 44.3032 148.858 44.0713C148.699 43.834 148.481 43.6196 148.205 43.4287C148.065 43.332 147.911 43.2417 147.742 43.1572C147.238 42.9053 146.579 42.6885 145.765 42.5068C144.956 42.3252 144.396 42.1348 144.086 41.9355C143.775 41.7363 143.62 41.4404 143.62 41.0479C143.62 40.6318 143.787 40.2949 144.121 40.0371C144.284 39.9116 144.477 39.8164 144.701 39.752C144.937 39.6841 145.207 39.6504 145.51 39.6504C146.084 39.6504 146.559 39.8115 146.934 40.1338C147.314 40.4561 147.505 40.8398 147.505 41.2852H149.14C149.14 40.418 148.803 39.7061 148.129 39.1494C147.461 38.5928 146.588 38.3145 145.51 38.3145C144.484 38.3145 143.641 38.584 142.979 39.123C142.322 39.6621 141.994 40.3213 141.994 41.1006C141.994 41.5693 142.108 41.9736 142.337 42.3135C142.571 42.6533 142.929 42.9463 143.409 43.1924C143.646 43.3125 143.923 43.4243 144.24 43.5278C144.573 43.6362 144.949 43.7354 145.369 43.8252C146.195 44.001 146.772 44.2119 147.101 44.458ZM155.951 48H157.577V34.5H155.951V48ZM160.328 48H161.954V38.4902H160.328V48ZM160.434 35.2998C160.275 35.4814 160.196 35.7041 160.196 35.9678C160.196 36.2314 160.275 36.4512 160.434 36.627C160.598 36.8027 160.838 36.8906 161.154 36.8906C161.471 36.8906 161.711 36.8027 161.875 36.627C161.952 36.5439 162.011 36.4517 162.052 36.3491C162.098 36.2344 162.121 36.1074 162.121 35.9678C162.121 35.7041 162.039 35.4814 161.875 35.2998C161.711 35.1182 161.471 35.0273 161.154 35.0273C160.838 35.0273 160.598 35.1182 160.434 35.2998ZM169.601 44.458C169.935 44.6982 170.102 45.0381 170.102 45.4775C170.102 45.8936 169.914 46.2275 169.539 46.4795C169.349 46.6064 169.126 46.7007 168.871 46.7622C168.63 46.8198 168.361 46.8486 168.062 46.8486C167.395 46.8486 166.855 46.6904 166.445 46.374C166.041 46.0518 165.824 45.6182 165.795 45.0732H164.169C164.169 45.6357 164.333 46.1602 164.661 46.6465C164.995 47.127 165.455 47.502 166.041 47.7715C166.627 48.041 167.301 48.1758 168.062 48.1758C169.146 48.1758 170.028 47.9209 170.708 47.4111C171.388 46.8955 171.728 46.2129 171.728 45.3633C171.728 44.8535 171.604 44.4229 171.358 44.0713C171.118 43.7139 170.746 43.4092 170.242 43.1572C169.738 42.9053 169.079 42.6885 168.265 42.5068C167.456 42.3252 166.896 42.1348 166.586 41.9355C166.275 41.7363 166.12 41.4404 166.12 41.0479C166.12 40.6318 166.287 40.2949 166.621 40.0371C166.955 39.7793 167.418 39.6504 168.01 39.6504C168.584 39.6504 169.059 39.8115 169.434 40.1338C169.814 40.4561 170.005 40.8398 170.005 41.2852H171.64C171.64 40.418 171.303 39.7061 170.629 39.1494C169.961 38.5928 169.088 38.3145 168.01 38.3145C166.984 38.3145 166.141 38.584 165.479 39.123C164.822 39.6621 164.494 40.3213 164.494 41.1006C164.494 41.5693 164.608 41.9736 164.837 42.3135C164.981 42.5225 165.171 42.7134 165.408 42.8867C165.557 42.9956 165.724 43.0977 165.909 43.1924C166.396 43.4385 167.049 43.6494 167.869 43.8252C168.695 44.001 169.272 44.2119 169.601 44.458ZM176.052 38.4902V36.1875H174.426V38.4902H172.694V39.7471H174.426V45.6445C174.426 46.4531 174.61 47.0771 174.979 47.5166C175.349 47.9561 175.896 48.1758 176.623 48.1758C177.027 48.1758 177.443 48.1172 177.871 48V46.6816C177.543 46.752 177.285 46.7871 177.098 46.7871C176.717 46.7871 176.447 46.6934 176.289 46.5059C176.131 46.3125 176.052 46.0254 176.052 45.6445V39.7471H177.827V38.4902H176.052ZM184.34 48H185.966V38.4902H184.34V48ZM184.445 35.2998C184.287 35.4814 184.208 35.7041 184.208 35.9678C184.208 36.2314 184.287 36.4512 184.445 36.627C184.609 36.8027 184.85 36.8906 185.166 36.8906C185.356 36.8906 185.52 36.8589 185.655 36.7949C185.744 36.7529 185.821 36.6968 185.887 36.627C186.051 36.4512 186.133 36.2314 186.133 35.9678C186.133 35.8188 186.106 35.6831 186.054 35.5605C186.014 35.4658 185.958 35.3789 185.887 35.2998C185.723 35.1182 185.482 35.0273 185.166 35.0273C184.85 35.0273 184.609 35.1182 184.445 35.2998ZM193.612 44.458C193.946 44.6982 194.113 45.0381 194.113 45.4775C194.113 45.8936 193.926 46.2275 193.551 46.4795C193.182 46.7256 192.689 46.8486 192.074 46.8486C191.406 46.8486 190.867 46.6904 190.457 46.374C190.053 46.0518 189.836 45.6182 189.807 45.0732H188.181C188.181 45.6357 188.345 46.1602 188.673 46.6465C189.007 47.127 189.467 47.502 190.053 47.7715C190.639 48.041 191.312 48.1758 192.074 48.1758C193.158 48.1758 194.04 47.9209 194.72 47.4111C195.399 46.8955 195.739 46.2129 195.739 45.3633C195.739 44.8535 195.616 44.4229 195.37 44.0713C195.13 43.7139 194.758 43.4092 194.254 43.1572C193.75 42.9053 193.091 42.6885 192.276 42.5068C191.468 42.3252 190.908 42.1348 190.598 41.9355C190.451 41.8418 190.339 41.7261 190.262 41.5889C190.175 41.4355 190.132 41.2554 190.132 41.0479C190.132 40.6318 190.299 40.2949 190.633 40.0371C190.967 39.7793 191.43 39.6504 192.021 39.6504C192.596 39.6504 193.07 39.8115 193.445 40.1338C193.826 40.4561 194.017 40.8398 194.017 41.2852H195.651C195.651 40.418 195.314 39.7061 194.641 39.1494C193.973 38.5928 193.1 38.3145 192.021 38.3145C190.996 38.3145 190.152 38.584 189.49 39.123C189.054 39.4814 188.763 39.8926 188.616 40.3574C188.542 40.5918 188.506 40.8394 188.506 41.1006C188.506 41.5693 188.62 41.9736 188.849 42.3135C189.083 42.6533 189.44 42.9463 189.921 43.1924C190.407 43.4385 191.061 43.6494 191.881 43.8252C192.707 44.001 193.284 44.2119 193.612 44.458ZM210.364 43.7554C210.37 43.623 210.373 43.4883 210.373 43.3506V43.21C210.373 41.6924 210.042 40.4971 209.38 39.624C208.724 38.751 207.818 38.3145 206.664 38.3145C205.51 38.3145 204.604 38.7217 203.948 39.5361V34.5H202.322V48H203.816L203.896 46.9014C204.552 47.751 205.48 48.1758 206.682 48.1758C207.807 48.1758 208.703 47.7363 209.371 46.8574C209.976 46.0562 210.307 45.0225 210.364 43.7554ZM208.105 40.5996C208.533 41.2031 208.747 42.0586 208.747 43.166C208.747 43.8042 208.687 44.3579 208.567 44.8276C208.459 45.2505 208.302 45.6045 208.097 45.8906C207.663 46.4941 207.057 46.7959 206.277 46.7959C205.223 46.7959 204.446 46.2979 203.948 45.3018V41.1885C204.417 40.1924 205.188 39.6943 206.26 39.6943C207.062 39.6943 207.678 39.9961 208.105 40.5996ZM213.229 46.9102C214.038 47.7539 215.087 48.1758 216.376 48.1758C217.97 48.1758 219.165 47.5635 219.962 46.3389L218.969 45.5654C218.813 45.7671 218.643 45.9482 218.46 46.1089C218.292 46.2559 218.113 46.3853 217.923 46.4971C217.524 46.7314 217.038 46.8486 216.464 46.8486C215.655 46.8486 214.987 46.5615 214.46 45.9873C213.938 45.4072 213.666 44.6484 213.643 43.7109H220.085V43.0342C220.085 41.5166 219.742 40.3506 219.057 39.5361C218.371 38.7217 217.41 38.3145 216.174 38.3145C215.418 38.3145 214.715 38.5254 214.064 38.9473C213.42 39.3633 212.916 39.9434 212.553 40.6875C212.195 41.4258 212.017 42.2666 212.017 43.21V43.5088C212.017 44.249 212.127 44.9116 212.347 45.4971C212.549 46.0327 212.843 46.5039 213.229 46.9102ZM214.521 40.3711C214.967 39.8906 215.518 39.6504 216.174 39.6504C216.854 39.6504 217.393 39.8789 217.791 40.3359C218.189 40.7871 218.412 41.4258 218.459 42.252V42.375H213.695C213.801 41.5137 214.076 40.8457 214.521 40.3711ZM224.181 38.4902V36.1875H222.555V38.4902H220.823V39.7471H222.555V45.6445C222.555 46.4531 222.739 47.0771 223.108 47.5166C223.223 47.6533 223.355 47.7686 223.505 47.8628C223.835 48.0713 224.251 48.1758 224.752 48.1758C225.156 48.1758 225.572 48.1172 226 48V46.6816C225.672 46.752 225.414 46.7871 225.227 46.7871C225.031 46.7871 224.864 46.7622 224.728 46.7129C224.598 46.666 224.495 46.5972 224.418 46.5059C224.26 46.3125 224.181 46.0254 224.181 45.6445V39.7471H225.956V38.4902H224.181ZM230.069 38.4902V36.1875H228.443V38.4902H226.712V39.7471H228.443V45.6445C228.443 46.4531 228.628 47.0771 228.997 47.5166C229.179 47.7334 229.405 47.897 229.675 48.0068C229.951 48.1196 230.273 48.1758 230.641 48.1758C231.045 48.1758 231.461 48.1172 231.889 48V46.6816C231.561 46.752 231.303 46.7871 231.115 46.7871C230.734 46.7871 230.465 46.6934 230.307 46.5059C230.148 46.3125 230.069 46.0254 230.069 45.6445V39.7471H231.845V38.4902H230.069ZM234.552 46.9102C235.36 47.7539 236.409 48.1758 237.698 48.1758C239.292 48.1758 240.487 47.5635 241.284 46.3389L240.291 45.5654C239.992 45.9521 239.644 46.2627 239.245 46.4971C239.042 46.6167 238.816 46.7056 238.567 46.7642C238.328 46.8203 238.067 46.8486 237.786 46.8486C236.978 46.8486 236.31 46.5615 235.782 45.9873C235.261 45.4072 234.988 44.6484 234.965 43.7109H241.407V43.0342C241.407 42.2202 241.309 41.5073 241.111 40.8955C240.941 40.3667 240.697 39.9136 240.379 39.5361C239.693 38.7217 238.732 38.3145 237.496 38.3145C237.332 38.3145 237.17 38.3242 237.011 38.3442C236.438 38.416 235.896 38.6172 235.387 38.9473C234.742 39.3633 234.238 39.9434 233.875 40.6875C233.518 41.4258 233.339 42.2666 233.339 43.21V43.5088C233.339 44.9268 233.743 46.0605 234.552 46.9102ZM236.731 39.7754C236.968 39.6919 237.223 39.6504 237.496 39.6504C238.176 39.6504 238.715 39.8789 239.113 40.3359C239.512 40.7871 239.734 41.4258 239.781 42.252V42.375H235.018C235.123 41.5137 235.398 40.8457 235.844 40.3711C236.104 40.0908 236.399 39.8921 236.731 39.7754ZM247.094 39.8877C247.381 39.8877 247.647 39.9082 247.894 39.9492V38.4375C247.729 38.3555 247.489 38.3145 247.173 38.3145C246.194 38.3145 245.438 38.7393 244.905 39.5889L244.879 38.4902H243.297V48H244.923V41.25C245.304 40.3418 246.027 39.8877 247.094 39.8877ZM259.354 38.4902L256.999 45.7939L254.582 38.4902H252.921L256.366 48H257.605L261.016 38.4902H259.354ZM262.721 48H264.347V38.4902H262.721V48ZM262.826 35.2998C262.668 35.4814 262.589 35.7041 262.589 35.9678C262.589 36.146 262.625 36.3042 262.697 36.4419C262.732 36.5083 262.775 36.5698 262.826 36.627C262.914 36.7212 263.024 36.7905 263.156 36.8345C263.27 36.8721 263.4 36.8906 263.547 36.8906C263.767 36.8906 263.949 36.8481 264.095 36.7637C264.16 36.7261 264.217 36.6807 264.268 36.627C264.432 36.4512 264.514 36.2314 264.514 35.9678C264.514 35.7041 264.432 35.4814 264.268 35.2998C264.187 35.2104 264.087 35.1426 263.969 35.0972C263.848 35.0508 263.708 35.0273 263.547 35.0273C263.23 35.0273 262.99 35.1182 262.826 35.2998ZM269.264 47.9033C269.759 48.085 270.305 48.1758 270.903 48.1758C272.497 48.1758 273.692 47.5635 274.489 46.3389L273.496 45.5654C273.197 45.9521 272.849 46.2627 272.45 46.4971C272.052 46.7314 271.565 46.8486 270.991 46.8486C270.183 46.8486 269.515 46.5615 268.987 45.9873C268.702 45.6694 268.491 45.2979 268.354 44.8726C268.242 44.522 268.181 44.1348 268.17 43.7109H274.612V43.0342C274.612 41.5166 274.27 40.3506 273.584 39.5361C272.898 38.7217 271.938 38.3145 270.701 38.3145C269.945 38.3145 269.242 38.5254 268.592 38.9473C267.947 39.3633 267.443 39.9434 267.08 40.6875C266.723 41.4258 266.544 42.2666 266.544 43.21V43.5088C266.544 44.2939 266.668 44.9922 266.916 45.6035C267.116 46.0957 267.396 46.5312 267.757 46.9102C268.19 47.3623 268.692 47.6934 269.264 47.9033ZM269.049 40.3711C269.494 39.8906 270.045 39.6504 270.701 39.6504C271.381 39.6504 271.92 39.8789 272.318 40.3359C272.717 40.7871 272.939 41.4258 272.986 42.252V42.375H268.223C268.328 41.5137 268.604 40.8457 269.049 40.3711ZM286.75 38.4902L284.922 45.7588L282.663 38.4902H281.354L279.139 45.6094L277.267 38.4902H275.649L278.409 48H279.728L281.978 40.793L284.289 48H285.607L288.376 38.4902H286.75ZM290.837 46.9102C291.646 47.7539 292.694 48.1758 293.983 48.1758C295.577 48.1758 296.772 47.5635 297.569 46.3389L296.576 45.5654C296.277 45.9521 295.929 46.2627 295.53 46.4971C295.132 46.7314 294.646 46.8486 294.071 46.8486C293.263 46.8486 292.595 46.5615 292.067 45.9873C291.546 45.4072 291.273 44.6484 291.25 43.7109H297.692V43.0342C297.692 41.5166 297.35 40.3506 296.664 39.5361C295.979 38.7217 295.018 38.3145 293.781 38.3145C293.025 38.3145 292.322 38.5254 291.672 38.9473C291.027 39.3633 290.523 39.9434 290.16 40.6875C289.944 41.1333 289.794 41.6162 289.708 42.1362C289.652 42.478 289.624 42.8359 289.624 43.21V43.5088C289.624 44.9268 290.028 46.0605 290.837 46.9102ZM292.129 40.3711C292.574 39.8906 293.125 39.6504 293.781 39.6504C294.461 39.6504 295 39.8789 295.398 40.3359C295.628 40.5957 295.799 40.9175 295.912 41.3013C295.995 41.5845 296.046 41.9014 296.066 42.252V42.375H291.303C291.408 41.5137 291.684 40.8457 292.129 40.3711ZM300.224 39.6504C299.532 40.5352 299.187 41.707 299.187 43.166V43.2891C299.187 44.7422 299.532 45.9199 300.224 46.8223C300.921 47.7246 301.82 48.1758 302.922 48.1758C304.082 48.1758 304.987 47.7773 305.638 46.9805L305.717 48H307.211V34.5H305.585V39.457C304.935 38.6953 304.053 38.3145 302.939 38.3145C301.82 38.3145 300.915 38.7598 300.224 39.6504ZM300.897 44.4116C300.841 44.0874 300.812 43.7339 300.812 43.3506C300.812 42.1436 301.035 41.2324 301.48 40.6172C301.926 40.002 302.547 39.6943 303.344 39.6943C304.352 39.6943 305.099 40.1426 305.585 41.0391V45.4072C305.11 46.333 304.357 46.7959 303.326 46.7959C302.541 46.7959 301.926 46.4912 301.48 45.8818C301.193 45.4893 300.999 44.999 300.897 44.4116ZM324.455 38.4902L322.627 45.7588L320.368 38.4902H319.059L316.844 45.6094L314.972 38.4902H313.354L316.114 48H317.433L319.683 40.793L321.994 48H323.312L326.081 38.4902H324.455ZM332.181 38.3145C331.026 38.3145 330.089 38.7568 329.368 39.6416V34.5H327.742V48H329.368V41.2236C329.591 40.7666 329.901 40.3975 330.3 40.1162C330.698 39.835 331.161 39.6943 331.688 39.6943C332.08 39.6943 332.409 39.7539 332.675 39.8726C332.851 39.9512 333 40.0557 333.121 40.1865C333.213 40.2842 333.292 40.3975 333.357 40.5269C333.512 40.832 333.592 41.2256 333.596 41.707V48H335.222V41.7158C335.204 39.4482 334.19 38.3145 332.181 38.3145ZM338.456 46.9102C339.265 47.7539 340.313 48.1758 341.603 48.1758C343.196 48.1758 344.392 47.5635 345.188 46.3389L344.195 45.5654C343.896 45.9521 343.548 46.2627 343.149 46.4971C342.751 46.7314 342.265 46.8486 341.69 46.8486C340.882 46.8486 340.214 46.5615 339.687 45.9873C339.165 45.4072 338.893 44.6484 338.869 43.7109H345.312V43.0342C345.312 41.5166 344.969 40.3506 344.283 39.5361C343.598 38.7217 342.637 38.3145 341.4 38.3145C340.645 38.3145 339.941 38.5254 339.291 38.9473C338.925 39.1831 338.605 39.4722 338.33 39.814C338.12 40.0742 337.937 40.3657 337.779 40.6875C337.422 41.4258 337.243 42.2666 337.243 43.21V43.5088C337.243 44.9268 337.647 46.0605 338.456 46.9102ZM339.748 40.3711C340.193 39.8906 340.744 39.6504 341.4 39.6504C342.08 39.6504 342.619 39.8789 343.018 40.3359C343.416 40.7871 343.639 41.4258 343.686 42.252V42.375H338.922C338.979 41.9062 339.087 41.4951 339.245 41.1411C339.377 40.8442 339.545 40.5874 339.748 40.3711ZM348.792 39.6855L348.739 38.4902H347.201V48H348.827V41.2236C348.89 41.0942 348.96 40.9722 349.037 40.8569C349.232 40.5649 349.473 40.3179 349.759 40.1162C350.157 39.835 350.62 39.6943 351.147 39.6943C351.798 39.6943 352.275 39.8584 352.58 40.1865C352.891 40.5146 353.049 41.0215 353.055 41.707V48H354.681V41.7158C354.663 39.4482 353.649 38.3145 351.64 38.3145C350.468 38.3145 349.519 38.7715 348.792 39.6855ZM361.738 48H363.364V34.5H361.738V48ZM366.115 48H367.741V38.4902H366.115V48ZM366.221 35.2998C366.062 35.4814 365.983 35.7041 365.983 35.9678C365.983 36.2314 366.062 36.4512 366.221 36.627C366.385 36.8027 366.625 36.8906 366.941 36.8906C367.258 36.8906 367.498 36.8027 367.662 36.627C367.826 36.4512 367.908 36.2314 367.908 35.9678C367.908 35.7998 367.875 35.6479 367.808 35.5132C367.771 35.437 367.722 35.3657 367.662 35.2998C367.498 35.1182 367.258 35.0273 366.941 35.0273C366.625 35.0273 366.385 35.1182 366.221 35.2998ZM370.993 39.6328C370.308 40.5059 369.965 41.6836 369.965 43.166C369.965 44.7129 370.308 45.9346 370.993 46.8311C371.685 47.7275 372.587 48.1758 373.7 48.1758C374.457 48.1758 375.105 48.0063 375.647 47.6675C375.911 47.502 376.15 47.2964 376.363 47.0508V47.8682C376.363 48.6768 376.141 49.3037 375.695 49.749C375.256 50.1943 374.641 50.417 373.85 50.417C373.402 50.417 372.985 50.332 372.599 50.1621C372.115 49.9497 371.68 49.604 371.292 49.125L370.448 50.1006C370.794 50.6104 371.295 51.0117 371.951 51.3047C372.607 51.5977 373.278 51.7441 373.964 51.7441C375.194 51.7441 376.173 51.3896 376.899 50.6807C377.632 49.9717 377.998 49.002 377.998 47.7715V38.4902H376.513L376.434 39.5449C375.783 38.7246 374.878 38.3145 373.718 38.3145C372.587 38.3145 371.679 38.7539 370.993 39.6328ZM372.259 45.8818C371.819 45.2666 371.6 44.4229 371.6 43.3506C371.6 42.1436 371.822 41.2324 372.268 40.6172C372.505 40.2891 372.792 40.0483 373.127 39.895C373.421 39.7612 373.753 39.6943 374.122 39.6943C375.118 39.6943 375.865 40.1484 376.363 41.0566V45.3984C375.883 46.3301 375.13 46.7959 374.104 46.7959C373.313 46.7959 372.698 46.4912 372.259 45.8818ZM384.897 38.3145C383.743 38.3145 382.806 38.7568 382.085 39.6416V34.5H380.459V48H382.085V41.2236C382.308 40.7666 382.618 40.3975 383.017 40.1162C383.415 39.835 383.878 39.6943 384.405 39.6943C385.056 39.6943 385.533 39.8584 385.838 40.1865C385.996 40.3535 386.115 40.5664 386.194 40.8262C386.27 41.0767 386.31 41.3701 386.312 41.707V48H387.938V41.7158C387.921 39.4482 386.907 38.3145 384.897 38.3145ZM392.579 38.4902V36.1875H390.953V38.4902H389.222V39.7471H390.953V45.6445C390.953 46.4531 391.138 47.0771 391.507 47.5166C391.876 47.9561 392.424 48.1758 393.15 48.1758C393.555 48.1758 393.971 48.1172 394.398 48V46.6816C394.07 46.752 393.812 46.7871 393.625 46.7871C393.465 46.7871 393.325 46.7705 393.204 46.7373C393.038 46.6919 392.908 46.6147 392.816 46.5059C392.658 46.3125 392.579 46.0254 392.579 45.6445V39.7471H394.354V38.4902H392.579ZM402.933 38.4902V36.1875H401.307V38.4902H399.575V39.7471H401.307V45.6445C401.307 46.4531 401.491 47.0771 401.86 47.5166C402.078 47.7749 402.356 47.9575 402.697 48.064C402.936 48.1387 403.205 48.1758 403.504 48.1758C403.908 48.1758 404.324 48.1172 404.752 48V46.6816C404.6 46.7144 404.463 46.7393 404.341 46.7568C404.2 46.7769 404.079 46.7871 403.979 46.7871C403.598 46.7871 403.328 46.6934 403.17 46.5059C403.012 46.3125 402.933 46.0254 402.933 45.6445V39.7471H404.708V38.4902H402.933ZM411.054 38.3145C409.899 38.3145 408.962 38.7568 408.241 39.6416V34.5H406.615V48H408.241V41.2236C408.464 40.7666 408.774 40.3975 409.173 40.1162C409.571 39.835 410.034 39.6943 410.562 39.6943C410.755 39.6943 410.934 39.709 411.097 39.7383C411.481 39.8066 411.78 39.9561 411.994 40.1865C412.305 40.5146 412.463 41.0215 412.469 41.707V48H414.095V41.7158C414.077 39.4482 413.063 38.3145 411.054 38.3145ZM417.329 46.9102C418.138 47.7539 419.187 48.1758 420.476 48.1758C422.069 48.1758 423.265 47.5635 424.062 46.3389L423.068 45.5654C422.77 45.9521 422.421 46.2627 422.022 46.4971C421.624 46.7314 421.138 46.8486 420.563 46.8486C419.755 46.8486 419.087 46.5615 418.56 45.9873C418.304 45.7031 418.108 45.376 417.973 45.0059C417.831 44.6206 417.754 44.189 417.742 43.7109H424.185V43.0342C424.185 41.5166 423.842 40.3506 423.156 39.5361C422.471 38.7217 421.51 38.3145 420.273 38.3145C419.518 38.3145 418.814 38.5254 418.164 38.9473C417.52 39.3633 417.016 39.9434 416.652 40.6875C416.295 41.4258 416.116 42.2666 416.116 43.21V43.5088C416.116 44.9268 416.521 46.0605 417.329 46.9102ZM418.621 40.3711C419.066 39.8906 419.617 39.6504 420.273 39.6504C420.607 39.6504 420.907 39.7056 421.173 39.8154C421.449 39.9297 421.688 40.103 421.891 40.3359C422.034 40.498 422.154 40.6841 422.252 40.8945C422.426 41.27 422.528 41.7222 422.559 42.252V42.375H417.795C417.9 41.5137 418.176 40.8457 418.621 40.3711ZM427.647 39.5449L427.604 38.4902H426.065V48H427.691V41.0566C427.932 40.5 428.299 40.1138 428.793 39.8984C429.104 39.7622 429.467 39.6943 429.88 39.6943C431.233 39.6943 431.91 40.3857 431.91 41.7686V48H433.545V41.6895C433.581 41.3491 433.669 41.0483 433.809 40.7866C433.92 40.5796 434.063 40.397 434.239 40.2393C434.412 40.0815 434.604 39.9585 434.815 39.8691C435.091 39.7529 435.4 39.6943 435.742 39.6943C436.475 39.6943 436.996 39.8643 437.307 40.2041C437.617 40.5381 437.772 41.0449 437.772 41.7246V48H439.398V41.6279C439.363 39.4189 438.303 38.3145 436.217 38.3145C435.525 38.3145 434.925 38.4551 434.415 38.7363C433.911 39.0176 433.501 39.3867 433.185 39.8438C432.704 38.8242 431.799 38.3145 430.469 38.3145C429.285 38.3145 428.345 38.7246 427.647 39.5449ZM442.659 46.9102C443.468 47.7539 444.517 48.1758 445.806 48.1758C447.399 48.1758 448.595 47.5635 449.392 46.3389L448.398 45.5654C448.1 45.9521 447.751 46.2627 447.353 46.4971C447.096 46.6484 446.802 46.751 446.472 46.8047C446.29 46.834 446.097 46.8486 445.894 46.8486C445.085 46.8486 444.417 46.5615 443.89 45.9873C443.368 45.4072 443.096 44.6484 443.072 43.7109H449.515V43.0342C449.515 41.5166 449.172 40.3506 448.486 39.5361C447.801 38.7217 446.84 38.3145 445.604 38.3145C444.848 38.3145 444.145 38.5254 443.494 38.9473C442.85 39.3633 442.346 39.9434 441.982 40.6875C441.625 41.4258 441.446 42.2666 441.446 43.21V43.5088C441.446 44.9268 441.851 46.0605 442.659 46.9102ZM443.951 40.3711C444.396 39.8906 444.947 39.6504 445.604 39.6504C446.283 39.6504 446.822 39.8789 447.221 40.3359C447.619 40.7871 447.842 41.4258 447.889 42.252V42.375H443.125C443.23 41.5137 443.506 40.8457 443.951 40.3711ZM456.01 48H457.636V38.4902H456.01V48ZM456.115 35.2998C455.957 35.4814 455.878 35.7041 455.878 35.9678C455.878 36.145 455.914 36.3022 455.985 36.4399C456.02 36.5068 456.063 36.5693 456.115 36.627C456.279 36.8027 456.52 36.8906 456.836 36.8906C457.027 36.8906 457.191 36.8584 457.327 36.7939C457.415 36.752 457.492 36.6963 457.557 36.627C457.687 36.4878 457.765 36.3213 457.792 36.1274C457.799 36.0762 457.803 36.0229 457.803 35.9678C457.803 35.7041 457.721 35.4814 457.557 35.2998C457.477 35.2119 457.38 35.145 457.265 35.0996C457.142 35.0513 456.999 35.0273 456.836 35.0273C456.52 35.0273 456.279 35.1182 456.115 35.2998ZM465.726 45.0669C465.764 45.1924 465.783 45.3291 465.783 45.4775C465.783 45.7275 465.715 45.9478 465.58 46.1382C465.49 46.2651 465.371 46.3789 465.221 46.4795C464.852 46.7256 464.359 46.8486 463.744 46.8486C463.076 46.8486 462.537 46.6904 462.127 46.374C461.723 46.0518 461.506 45.6182 461.477 45.0732H459.851C459.851 45.4082 459.909 45.73 460.025 46.0386C460.104 46.2476 460.21 46.4502 460.343 46.6465C460.677 47.127 461.137 47.502 461.723 47.7715C462.309 48.041 462.982 48.1758 463.744 48.1758C464.828 48.1758 465.71 47.9209 466.39 47.4111C467.069 46.8955 467.409 46.2129 467.409 45.3633C467.409 45.0298 467.356 44.73 467.251 44.4639C467.195 44.3237 467.125 44.1929 467.04 44.0713C466.8 43.7139 466.428 43.4092 465.924 43.1572C465.42 42.9053 464.761 42.6885 463.946 42.5068C463.503 42.4072 463.136 42.3052 462.842 42.2007C462.6 42.1143 462.408 42.0259 462.268 41.9355C461.957 41.7363 461.802 41.4404 461.802 41.0479C461.802 40.6318 461.969 40.2949 462.303 40.0371C462.637 39.7793 463.1 39.6504 463.691 39.6504C464.266 39.6504 464.74 39.8115 465.115 40.1338C465.496 40.4561 465.687 40.8398 465.687 41.2852H467.321C467.321 40.418 466.984 39.7061 466.311 39.1494C465.643 38.5928 464.77 38.3145 463.691 38.3145C462.666 38.3145 461.822 38.584 461.16 39.123C460.774 39.4399 460.502 39.7983 460.343 40.1982C460.231 40.4785 460.176 40.7793 460.176 41.1006C460.176 41.5693 460.29 41.9736 460.519 42.3135C460.66 42.519 460.847 42.7075 461.079 42.8789C461.23 42.9907 461.401 43.0952 461.591 43.1924C462.077 43.4385 462.73 43.6494 463.551 43.8252C464.377 44.001 464.954 44.2119 465.282 44.458C465.503 44.6172 465.651 44.8198 465.726 45.0669ZM474.106 40.6436C473.743 41.3877 473.562 42.2256 473.562 43.1572V43.2715C473.562 44.1523 473.703 44.9297 473.987 45.604C474.179 46.0601 474.435 46.4692 474.757 46.8311C475.56 47.7275 476.605 48.1758 477.895 48.1758C478.75 48.1758 479.506 47.9707 480.162 47.5605C480.824 47.1504 481.331 46.5791 481.683 45.8467C481.87 45.459 482.008 45.0459 482.098 44.6069C482.178 44.2095 482.219 43.7905 482.219 43.3506V43.2363C482.219 41.748 481.817 40.5557 481.015 39.6592C480.218 38.7627 479.172 38.3145 477.877 38.3145C477.34 38.3145 476.841 38.3975 476.378 38.5635C476.119 38.6562 475.872 38.7754 475.636 38.9209C474.985 39.3252 474.476 39.8994 474.106 40.6436ZM475.926 45.8906C475.439 45.252 475.196 44.4053 475.196 43.3506C475.196 42.1611 475.442 41.2471 475.935 40.6084C476.427 39.9697 477.074 39.6504 477.877 39.6504C478.697 39.6504 479.354 39.9756 479.846 40.626C480.344 41.2705 480.593 42.1143 480.593 43.1572C480.593 44.3232 480.35 45.2314 479.863 45.8818C479.377 46.5264 478.721 46.8486 477.895 46.8486C477.449 46.8486 477.052 46.7544 476.704 46.5664C476.41 46.4077 476.151 46.1826 475.926 45.8906ZM485.849 39.6855L485.796 38.4902H484.258V48H485.884V41.2236C486.106 40.7666 486.417 40.3975 486.815 40.1162C487.214 39.835 487.677 39.6943 488.204 39.6943C488.854 39.6943 489.332 39.8584 489.637 40.1865C489.947 40.5146 490.105 41.0215 490.111 41.707V48H491.737V41.7158C491.72 39.4482 490.706 38.3145 488.696 38.3145C487.524 38.3145 486.575 38.7715 485.849 39.6855ZM494.471 46.4443C494.307 46.6318 494.225 46.8662 494.225 47.1475C494.225 47.417 494.307 47.6426 494.471 47.8242C494.577 47.9375 494.714 48.0151 494.883 48.0581C494.986 48.084 495.101 48.0967 495.227 48.0967C495.561 48.0967 495.812 48.0059 495.982 47.8242C496.158 47.6426 496.246 47.417 496.246 47.1475C496.246 47.0142 496.227 46.8916 496.187 46.7793C496.143 46.6548 496.075 46.543 495.982 46.4443C495.812 46.2568 495.561 46.1631 495.227 46.1631C494.893 46.1631 494.641 46.2568 494.471 46.4443Z" fill="white"/>
</svg>
