<svg width="487" height="39" viewBox="0 0 487 39" fill="none" xmlns="http://www.w3.org/2000/svg">
<path d="M11.3203 14H9.62402V8.08496H3.17285V14H1.48535V1.20312H3.17285V6.70508H9.62402V1.20312H11.3203V14ZM18.0088 14.1758C16.7197 14.1758 15.6709 13.7539 14.8623 12.9102C14.0537 12.0605 13.6494 10.9268 13.6494 9.50879V9.20996C13.6494 8.2666 13.8281 7.42578 14.1855 6.6875C14.5488 5.94336 15.0527 5.36328 15.6973 4.94727C16.3477 4.52539 17.0508 4.31445 17.8066 4.31445C19.043 4.31445 20.0039 4.72168 20.6895 5.53613C21.375 6.35059 21.7178 7.5166 21.7178 9.03418V9.71094H15.2754C15.2988 10.6484 15.5713 11.4072 16.0928 11.9873C16.6201 12.5615 17.2881 12.8486 18.0967 12.8486C18.6709 12.8486 19.1572 12.7314 19.5557 12.4971C19.9541 12.2627 20.3027 11.9521 20.6016 11.5654L21.5947 12.3389C20.7979 13.5635 19.6025 14.1758 18.0088 14.1758ZM17.8066 5.65039C17.1504 5.65039 16.5996 5.89062 16.1543 6.37109C15.709 6.8457 15.4336 7.51367 15.3281 8.375H20.0918V8.25195C20.0449 7.42578 19.8223 6.78711 19.4238 6.33594C19.0254 5.87891 18.4863 5.65039 17.8066 5.65039ZM25.374 14H23.748V0.5H25.374V14ZM29.751 14H28.125V0.5H29.751V14ZM31.9307 9.15723C31.9307 8.22559 32.1123 7.3877 32.4756 6.64355C32.8447 5.89941 33.3545 5.3252 34.0049 4.9209C34.6611 4.5166 35.4082 4.31445 36.2461 4.31445C37.541 4.31445 38.5869 4.7627 39.3838 5.65918C40.1865 6.55566 40.5879 7.74805 40.5879 9.23633V9.35059C40.5879 10.2764 40.4092 11.1084 40.0518 11.8467C39.7002 12.5791 39.1934 13.1504 38.5312 13.5605C37.875 13.9707 37.1191 14.1758 36.2637 14.1758C34.9746 14.1758 33.9287 13.7275 33.126 12.8311C32.3291 11.9346 31.9307 10.748 31.9307 9.27148V9.15723ZM33.5654 9.35059C33.5654 10.4053 33.8086 11.252 34.2949 11.8906C34.7871 12.5293 35.4434 12.8486 36.2637 12.8486C37.0898 12.8486 37.7461 12.5264 38.2324 11.8818C38.7188 11.2314 38.9619 10.3232 38.9619 9.15723C38.9619 8.11426 38.7129 7.27051 38.2148 6.62598C37.7227 5.97559 37.0664 5.65039 36.2461 5.65039C35.4434 5.65039 34.7959 5.96973 34.3037 6.6084C33.8115 7.24707 33.5654 8.16113 33.5654 9.35059ZM42.5742 16.5488L41.6514 15.916C42.2021 15.1484 42.4893 14.3574 42.5127 13.543V12.0752H44.1035V13.3496C44.1035 13.9414 43.957 14.5332 43.6641 15.125C43.377 15.7168 43.0137 16.1914 42.5742 16.5488ZM53.7627 11.7939L56.1182 4.49023H57.7793L54.3691 14H53.1299L49.6846 4.49023H51.3457L53.7627 11.7939ZM61.1104 14H59.4844V4.49023H61.1104V14ZM59.3525 1.96777C59.3525 1.7041 59.4316 1.48145 59.5898 1.2998C59.7539 1.11816 59.9941 1.02734 60.3105 1.02734C60.627 1.02734 60.8672 1.11816 61.0312 1.2998C61.1953 1.48145 61.2773 1.7041 61.2773 1.96777C61.2773 2.23145 61.1953 2.45117 61.0312 2.62695C60.8672 2.80273 60.627 2.89062 60.3105 2.89062C59.9941 2.89062 59.7539 2.80273 59.5898 2.62695C59.4316 2.45117 59.3525 2.23145 59.3525 1.96777ZM69.2578 11.4775C69.2578 11.0381 69.0908 10.6982 68.7568 10.458C68.4287 10.2119 67.8516 10.001 67.0254 9.8252C66.2051 9.64941 65.5518 9.43848 65.0654 9.19238C64.585 8.94629 64.2275 8.65332 63.9932 8.31348C63.7646 7.97363 63.6504 7.56934 63.6504 7.10059C63.6504 6.32129 63.9785 5.66211 64.6348 5.12305C65.2969 4.58398 66.1406 4.31445 67.166 4.31445C68.2441 4.31445 69.1172 4.59277 69.7852 5.14941C70.459 5.70605 70.7959 6.41797 70.7959 7.28516H69.1611C69.1611 6.83984 68.9707 6.45605 68.5898 6.13379C68.2148 5.81152 67.7402 5.65039 67.166 5.65039C66.5742 5.65039 66.1113 5.7793 65.7773 6.03711C65.4434 6.29492 65.2764 6.63184 65.2764 7.04785C65.2764 7.44043 65.4316 7.73633 65.7422 7.93555C66.0527 8.13477 66.6123 8.3252 67.4209 8.50684C68.2354 8.68848 68.8945 8.90527 69.3984 9.15723C69.9023 9.40918 70.2744 9.71387 70.5146 10.0713C70.7607 10.4229 70.8838 10.8535 70.8838 11.3633C70.8838 12.2129 70.5439 12.8955 69.8643 13.4111C69.1846 13.9209 68.3027 14.1758 67.2188 14.1758C66.457 14.1758 65.7832 14.041 65.1973 13.7715C64.6113 13.502 64.1514 13.127 63.8174 12.6465C63.4893 12.1602 63.3252 11.6357 63.3252 11.0732H64.9512C64.9805 11.6182 65.1973 12.0518 65.6016 12.374C66.0117 12.6904 66.5508 12.8486 67.2188 12.8486C67.834 12.8486 68.3262 12.7256 68.6953 12.4795C69.0703 12.2275 69.2578 11.8936 69.2578 11.4775ZM74.7686 14H73.1426V4.49023H74.7686V14ZM73.0107 1.96777C73.0107 1.7041 73.0898 1.48145 73.248 1.2998C73.4121 1.11816 73.6523 1.02734 73.9688 1.02734C74.2852 1.02734 74.5254 1.11816 74.6895 1.2998C74.8535 1.48145 74.9355 1.7041 74.9355 1.96777C74.9355 2.23145 74.8535 2.45117 74.6895 2.62695C74.5254 2.80273 74.2852 2.89062 73.9688 2.89062C73.6523 2.89062 73.4121 2.80273 73.248 2.62695C73.0898 2.45117 73.0107 2.23145 73.0107 1.96777ZM79.585 2.1875V4.49023H81.3604V5.74707H79.585V11.6445C79.585 12.0254 79.6641 12.3125 79.8223 12.5059C79.9805 12.6934 80.25 12.7871 80.6309 12.7871C80.8184 12.7871 81.0762 12.752 81.4043 12.6816V14C80.9766 14.1172 80.5605 14.1758 80.1562 14.1758C79.4297 14.1758 78.8818 13.9561 78.5127 13.5166C78.1436 13.0771 77.959 12.4531 77.959 11.6445V5.74707H76.2275V4.49023H77.959V2.1875H79.585ZM82.6611 9.15723C82.6611 8.22559 82.8428 7.3877 83.2061 6.64355C83.5752 5.89941 84.085 5.3252 84.7354 4.9209C85.3916 4.5166 86.1387 4.31445 86.9766 4.31445C88.2715 4.31445 89.3174 4.7627 90.1143 5.65918C90.917 6.55566 91.3184 7.74805 91.3184 9.23633V9.35059C91.3184 10.2764 91.1396 11.1084 90.7822 11.8467C90.4307 12.5791 89.9238 13.1504 89.2617 13.5605C88.6055 13.9707 87.8496 14.1758 86.9941 14.1758C85.7051 14.1758 84.6592 13.7275 83.8564 12.8311C83.0596 11.9346 82.6611 10.748 82.6611 9.27148V9.15723ZM84.2959 9.35059C84.2959 10.4053 84.5391 11.252 85.0254 11.8906C85.5176 12.5293 86.1738 12.8486 86.9941 12.8486C87.8203 12.8486 88.4766 12.5264 88.9629 11.8818C89.4492 11.2314 89.6924 10.3232 89.6924 9.15723C89.6924 8.11426 89.4434 7.27051 88.9453 6.62598C88.4531 5.97559 87.7969 5.65039 86.9766 5.65039C86.1738 5.65039 85.5264 5.96973 85.0342 6.6084C84.542 7.24707 84.2959 8.16113 84.2959 9.35059ZM97.9541 5.94922C97.708 5.9082 97.4414 5.8877 97.1543 5.8877C96.0879 5.8877 95.3643 6.3418 94.9834 7.25V14H93.3574V4.49023H94.9395L94.9658 5.58887C95.499 4.73926 96.2549 4.31445 97.2334 4.31445C97.5498 4.31445 97.79 4.35547 97.9541 4.4375V5.94922ZM98.4023 13.1475C98.4023 12.8662 98.4844 12.6318 98.6484 12.4443C98.8184 12.2568 99.0703 12.1631 99.4043 12.1631C99.7383 12.1631 99.9902 12.2568 100.16 12.4443C100.336 12.6318 100.424 12.8662 100.424 13.1475C100.424 13.417 100.336 13.6426 100.16 13.8242C99.9902 14.0059 99.7383 14.0967 99.4043 14.0967C99.0703 14.0967 98.8184 14.0059 98.6484 13.8242C98.4844 13.6426 98.4023 13.417 98.4023 13.1475ZM109.644 14H107.956V1.20312H109.644V14ZM119.602 9.59668L118.582 10.6602V14H116.956V0.5H118.582V8.66504L119.452 7.61914L122.414 4.49023H124.392L120.691 8.46289L124.822 14H122.915L119.602 9.59668ZM127.608 4.49023L127.661 5.68555C128.388 4.77148 129.337 4.31445 130.509 4.31445C132.519 4.31445 133.532 5.44824 133.55 7.71582V14H131.924V7.70703C131.918 7.02148 131.76 6.51465 131.449 6.18652C131.145 5.8584 130.667 5.69434 130.017 5.69434C129.489 5.69434 129.026 5.83496 128.628 6.11621C128.229 6.39746 127.919 6.7666 127.696 7.22363V14H126.07V4.49023H127.608ZM135.571 9.15723C135.571 8.22559 135.753 7.3877 136.116 6.64355C136.485 5.89941 136.995 5.3252 137.646 4.9209C138.302 4.5166 139.049 4.31445 139.887 4.31445C141.182 4.31445 142.228 4.7627 143.024 5.65918C143.827 6.55566 144.229 7.74805 144.229 9.23633V9.35059C144.229 10.2764 144.05 11.1084 143.692 11.8467C143.341 12.5791 142.834 13.1504 142.172 13.5605C141.516 13.9707 140.76 14.1758 139.904 14.1758C138.615 14.1758 137.569 13.7275 136.767 12.8311C135.97 11.9346 135.571 10.748 135.571 9.27148V9.15723ZM137.206 9.35059C137.206 10.4053 137.449 11.252 137.936 11.8906C138.428 12.5293 139.084 12.8486 139.904 12.8486C140.73 12.8486 141.387 12.5264 141.873 11.8818C142.359 11.2314 142.603 10.3232 142.603 9.15723C142.603 8.11426 142.354 7.27051 141.855 6.62598C141.363 5.97559 140.707 5.65039 139.887 5.65039C139.084 5.65039 138.437 5.96973 137.944 6.6084C137.452 7.24707 137.206 8.16113 137.206 9.35059ZM154.688 11.7588L156.516 4.49023H158.142L155.373 14H154.055L151.743 6.79297L149.493 14H148.175L145.415 4.49023H147.032L148.904 11.6094L151.119 4.49023H152.429L154.688 11.7588ZM167.379 11.6182L169.594 4.49023H171.334L167.511 15.4678C166.919 17.0498 165.979 17.8408 164.689 17.8408L164.382 17.8145L163.775 17.7002V16.3818L164.215 16.417C164.766 16.417 165.193 16.3057 165.498 16.083C165.809 15.8604 166.063 15.4531 166.263 14.8613L166.623 13.8945L163.23 4.49023H165.006L167.379 11.6182ZM172.222 9.15723C172.222 8.22559 172.403 7.3877 172.767 6.64355C173.136 5.89941 173.646 5.3252 174.296 4.9209C174.952 4.5166 175.699 4.31445 176.537 4.31445C177.832 4.31445 178.878 4.7627 179.675 5.65918C180.478 6.55566 180.879 7.74805 180.879 9.23633V9.35059C180.879 10.2764 180.7 11.1084 180.343 11.8467C179.991 12.5791 179.484 13.1504 178.822 13.5605C178.166 13.9707 177.41 14.1758 176.555 14.1758C175.266 14.1758 174.22 13.7275 173.417 12.8311C172.62 11.9346 172.222 10.748 172.222 9.27148V9.15723ZM173.856 9.35059C173.856 10.4053 174.1 11.252 174.586 11.8906C175.078 12.5293 175.734 12.8486 176.555 12.8486C177.381 12.8486 178.037 12.5264 178.523 11.8818C179.01 11.2314 179.253 10.3232 179.253 9.15723C179.253 8.11426 179.004 7.27051 178.506 6.62598C178.014 5.97559 177.357 5.65039 176.537 5.65039C175.734 5.65039 175.087 5.96973 174.595 6.6084C174.103 7.24707 173.856 8.16113 173.856 9.35059ZM188.789 13.0596C188.156 13.8037 187.228 14.1758 186.003 14.1758C184.989 14.1758 184.216 13.8828 183.683 13.2969C183.155 12.7051 182.889 11.832 182.883 10.6777V4.49023H184.509V10.6338C184.509 12.0752 185.095 12.7959 186.267 12.7959C187.509 12.7959 188.335 12.333 188.745 11.4072V4.49023H190.371V14H188.824L188.789 13.0596ZM198.844 4.49023L198.888 5.54492C199.585 4.72461 200.525 4.31445 201.709 4.31445C203.039 4.31445 203.944 4.82422 204.425 5.84375C204.741 5.38672 205.151 5.01758 205.655 4.73633C206.165 4.45508 206.766 4.31445 207.457 4.31445C209.543 4.31445 210.604 5.41895 210.639 7.62793V14H209.013V7.72461C209.013 7.04492 208.857 6.53809 208.547 6.2041C208.236 5.86426 207.715 5.69434 206.982 5.69434C206.379 5.69434 205.878 5.87598 205.479 6.23926C205.081 6.59668 204.85 7.08008 204.785 7.68945V14H203.15V7.76855C203.15 6.38574 202.474 5.69434 201.12 5.69434C200.054 5.69434 199.324 6.14844 198.932 7.05664V14H197.306V4.49023H198.844ZM214.866 14H213.24V4.49023H214.866V14ZM213.108 1.96777C213.108 1.7041 213.188 1.48145 213.346 1.2998C213.51 1.11816 213.75 1.02734 214.066 1.02734C214.383 1.02734 214.623 1.11816 214.787 1.2998C214.951 1.48145 215.033 1.7041 215.033 1.96777C215.033 2.23145 214.951 2.45117 214.787 2.62695C214.623 2.80273 214.383 2.89062 214.066 2.89062C213.75 2.89062 213.51 2.80273 213.346 2.62695C213.188 2.45117 213.108 2.23145 213.108 1.96777ZM217.09 9.16602C217.09 7.68359 217.433 6.50586 218.118 5.63281C218.804 4.75391 219.712 4.31445 220.843 4.31445C222.003 4.31445 222.908 4.72461 223.559 5.54492L223.638 4.49023H225.123V13.7715C225.123 15.002 224.757 15.9717 224.024 16.6807C223.298 17.3896 222.319 17.7441 221.089 17.7441C220.403 17.7441 219.732 17.5977 219.076 17.3047C218.42 17.0117 217.919 16.6104 217.573 16.1006L218.417 15.125C219.114 15.9863 219.967 16.417 220.975 16.417C221.766 16.417 222.381 16.1943 222.82 15.749C223.266 15.3037 223.488 14.6768 223.488 13.8682V13.0508C222.838 13.8008 221.95 14.1758 220.825 14.1758C219.712 14.1758 218.81 13.7275 218.118 12.8311C217.433 11.9346 217.09 10.7129 217.09 9.16602ZM218.725 9.35059C218.725 10.4229 218.944 11.2666 219.384 11.8818C219.823 12.4912 220.438 12.7959 221.229 12.7959C222.255 12.7959 223.008 12.3301 223.488 11.3984V7.05664C222.99 6.14844 222.243 5.69434 221.247 5.69434C220.456 5.69434 219.838 6.00195 219.393 6.61719C218.947 7.23242 218.725 8.14355 218.725 9.35059ZM229.21 5.6416C229.931 4.75684 230.868 4.31445 232.022 4.31445C234.032 4.31445 235.046 5.44824 235.063 7.71582V14H233.438V7.70703C233.432 7.02148 233.273 6.51465 232.963 6.18652C232.658 5.8584 232.181 5.69434 231.53 5.69434C231.003 5.69434 230.54 5.83496 230.142 6.11621C229.743 6.39746 229.433 6.7666 229.21 7.22363V14H227.584V0.5H229.21V5.6416ZM239.704 2.1875V4.49023H241.479V5.74707H239.704V11.6445C239.704 12.0254 239.783 12.3125 239.941 12.5059C240.1 12.6934 240.369 12.7871 240.75 12.7871C240.938 12.7871 241.195 12.752 241.523 12.6816V14C241.096 14.1172 240.68 14.1758 240.275 14.1758C239.549 14.1758 239.001 13.9561 238.632 13.5166C238.263 13.0771 238.078 12.4531 238.078 11.6445V5.74707H236.347V4.49023H238.078V2.1875H239.704ZM249.39 4.49023L249.442 5.68555C250.169 4.77148 251.118 4.31445 252.29 4.31445C254.3 4.31445 255.313 5.44824 255.331 7.71582V14H253.705V7.70703C253.699 7.02148 253.541 6.51465 253.23 6.18652C252.926 5.8584 252.448 5.69434 251.798 5.69434C251.271 5.69434 250.808 5.83496 250.409 6.11621C250.011 6.39746 249.7 6.7666 249.478 7.22363V14H247.852V4.49023H249.39ZM257.353 9.15723C257.353 8.22559 257.534 7.3877 257.897 6.64355C258.267 5.89941 258.776 5.3252 259.427 4.9209C260.083 4.5166 260.83 4.31445 261.668 4.31445C262.963 4.31445 264.009 4.7627 264.806 5.65918C265.608 6.55566 266.01 7.74805 266.01 9.23633V9.35059C266.01 10.2764 265.831 11.1084 265.474 11.8467C265.122 12.5791 264.615 13.1504 263.953 13.5605C263.297 13.9707 262.541 14.1758 261.686 14.1758C260.396 14.1758 259.351 13.7275 258.548 12.8311C257.751 11.9346 257.353 10.748 257.353 9.27148V9.15723ZM258.987 9.35059C258.987 10.4053 259.23 11.252 259.717 11.8906C260.209 12.5293 260.865 12.8486 261.686 12.8486C262.512 12.8486 263.168 12.5264 263.654 11.8818C264.141 11.2314 264.384 10.3232 264.384 9.15723C264.384 8.11426 264.135 7.27051 263.637 6.62598C263.145 5.97559 262.488 5.65039 261.668 5.65039C260.865 5.65039 260.218 5.96973 259.726 6.6084C259.233 7.24707 258.987 8.16113 258.987 9.35059ZM270.255 2.1875V4.49023H272.03V5.74707H270.255V11.6445C270.255 12.0254 270.334 12.3125 270.492 12.5059C270.65 12.6934 270.92 12.7871 271.301 12.7871C271.488 12.7871 271.746 12.752 272.074 12.6816V14C271.646 14.1172 271.23 14.1758 270.826 14.1758C270.1 14.1758 269.552 13.9561 269.183 13.5166C268.813 13.0771 268.629 12.4531 268.629 11.6445V5.74707H266.897V4.49023H268.629V2.1875H270.255ZM280.169 14H278.543V0.5H280.169V14ZM284.546 14H282.92V4.49023H284.546V14ZM282.788 1.96777C282.788 1.7041 282.867 1.48145 283.025 1.2998C283.189 1.11816 283.43 1.02734 283.746 1.02734C284.062 1.02734 284.303 1.11816 284.467 1.2998C284.631 1.48145 284.713 1.7041 284.713 1.96777C284.713 2.23145 284.631 2.45117 284.467 2.62695C284.303 2.80273 284.062 2.89062 283.746 2.89062C283.43 2.89062 283.189 2.80273 283.025 2.62695C282.867 2.45117 282.788 2.23145 282.788 1.96777ZM289.811 9.59668L288.791 10.6602V14H287.165V0.5H288.791V8.66504L289.661 7.61914L292.623 4.49023H294.601L290.9 8.46289L295.031 14H293.124L289.811 9.59668ZM300.05 14.1758C298.761 14.1758 297.712 13.7539 296.903 12.9102C296.095 12.0605 295.69 10.9268 295.69 9.50879V9.20996C295.69 8.2666 295.869 7.42578 296.227 6.6875C296.59 5.94336 297.094 5.36328 297.738 4.94727C298.389 4.52539 299.092 4.31445 299.848 4.31445C301.084 4.31445 302.045 4.72168 302.73 5.53613C303.416 6.35059 303.759 7.5166 303.759 9.03418V9.71094H297.316C297.34 10.6484 297.612 11.4072 298.134 11.9873C298.661 12.5615 299.329 12.8486 300.138 12.8486C300.712 12.8486 301.198 12.7314 301.597 12.4971C301.995 12.2627 302.344 11.9521 302.643 11.5654L303.636 12.3389C302.839 13.5635 301.644 14.1758 300.05 14.1758ZM299.848 5.65039C299.191 5.65039 298.641 5.89062 298.195 6.37109C297.75 6.8457 297.475 7.51367 297.369 8.375H302.133V8.25195C302.086 7.42578 301.863 6.78711 301.465 6.33594C301.066 5.87891 300.527 5.65039 299.848 5.65039ZM311.88 14H310.254V4.49023H311.88V14ZM310.122 1.96777C310.122 1.7041 310.201 1.48145 310.359 1.2998C310.523 1.11816 310.764 1.02734 311.08 1.02734C311.396 1.02734 311.637 1.11816 311.801 1.2998C311.965 1.48145 312.047 1.7041 312.047 1.96777C312.047 2.23145 311.965 2.45117 311.801 2.62695C311.637 2.80273 311.396 2.89062 311.08 2.89062C310.764 2.89062 310.523 2.80273 310.359 2.62695C310.201 2.45117 310.122 2.23145 310.122 1.96777ZM316.696 2.1875V4.49023H318.472V5.74707H316.696V11.6445C316.696 12.0254 316.775 12.3125 316.934 12.5059C317.092 12.6934 317.361 12.7871 317.742 12.7871C317.93 12.7871 318.188 12.752 318.516 12.6816V14C318.088 14.1172 317.672 14.1758 317.268 14.1758C316.541 14.1758 315.993 13.9561 315.624 13.5166C315.255 13.0771 315.07 12.4531 315.07 11.6445V5.74707H313.339V4.49023H315.07V2.1875H316.696ZM332.895 9.35059C332.895 10.8037 332.561 11.9727 331.893 12.8574C331.225 13.7363 330.328 14.1758 329.203 14.1758C328.002 14.1758 327.073 13.751 326.417 12.9014L326.338 14H324.844V0.5H326.47V5.53613C327.126 4.72168 328.031 4.31445 329.186 4.31445C330.34 4.31445 331.245 4.75098 331.901 5.62402C332.563 6.49707 332.895 7.69238 332.895 9.20996V9.35059ZM331.269 9.16602C331.269 8.05859 331.055 7.20312 330.627 6.59961C330.199 5.99609 329.584 5.69434 328.781 5.69434C327.709 5.69434 326.938 6.19238 326.47 7.18848V11.3018C326.968 12.2979 327.744 12.7959 328.799 12.7959C329.578 12.7959 330.185 12.4941 330.618 11.8906C331.052 11.2871 331.269 10.3789 331.269 9.16602ZM338.897 14.1758C337.608 14.1758 336.56 13.7539 335.751 12.9102C334.942 12.0605 334.538 10.9268 334.538 9.50879V9.20996C334.538 8.2666 334.717 7.42578 335.074 6.6875C335.438 5.94336 335.941 5.36328 336.586 4.94727C337.236 4.52539 337.939 4.31445 338.695 4.31445C339.932 4.31445 340.893 4.72168 341.578 5.53613C342.264 6.35059 342.606 7.5166 342.606 9.03418V9.71094H336.164C336.188 10.6484 336.46 11.4072 336.981 11.9873C337.509 12.5615 338.177 12.8486 338.985 12.8486C339.56 12.8486 340.046 12.7314 340.444 12.4971C340.843 12.2627 341.191 11.9521 341.49 11.5654L342.483 12.3389C341.687 13.5635 340.491 14.1758 338.897 14.1758ZM338.695 5.65039C338.039 5.65039 337.488 5.89062 337.043 6.37109C336.598 6.8457 336.322 7.51367 336.217 8.375H340.98V8.25195C340.934 7.42578 340.711 6.78711 340.312 6.33594C339.914 5.87891 339.375 5.65039 338.695 5.65039ZM348.311 12.8486C348.891 12.8486 349.397 12.6729 349.831 12.3213C350.265 11.9697 350.505 11.5303 350.552 11.0029H352.09C352.061 11.5479 351.873 12.0664 351.527 12.5586C351.182 13.0508 350.719 13.4434 350.139 13.7363C349.564 14.0293 348.955 14.1758 348.311 14.1758C347.016 14.1758 345.984 13.7451 345.217 12.8838C344.455 12.0166 344.074 10.833 344.074 9.33301V9.06055C344.074 8.13477 344.244 7.31152 344.584 6.59082C344.924 5.87012 345.41 5.31055 346.043 4.91211C346.682 4.51367 347.435 4.31445 348.302 4.31445C349.368 4.31445 350.253 4.63379 350.956 5.27246C351.665 5.91113 352.043 6.74023 352.09 7.75977H350.552C350.505 7.14453 350.271 6.64062 349.849 6.24805C349.433 5.84961 348.917 5.65039 348.302 5.65039C347.476 5.65039 346.834 5.94922 346.377 6.54688C345.926 7.13867 345.7 7.99707 345.7 9.12207V9.42969C345.7 10.5254 345.926 11.3691 346.377 11.9609C346.828 12.5527 347.473 12.8486 348.311 12.8486ZM359.789 14C359.695 13.8125 359.619 13.4785 359.561 12.998C358.805 13.7832 357.902 14.1758 356.854 14.1758C355.916 14.1758 355.146 13.9121 354.542 13.3848C353.944 12.8516 353.646 12.1777 353.646 11.3633C353.646 10.373 354.021 9.60547 354.771 9.06055C355.526 8.50977 356.587 8.23438 357.952 8.23438H359.534V7.4873C359.534 6.91895 359.364 6.46777 359.024 6.13379C358.685 5.79395 358.184 5.62402 357.521 5.62402C356.941 5.62402 356.455 5.77051 356.062 6.06348C355.67 6.35645 355.474 6.71094 355.474 7.12695H353.839C353.839 6.65234 354.006 6.19531 354.34 5.75586C354.68 5.31055 355.137 4.95898 355.711 4.70117C356.291 4.44336 356.927 4.31445 357.618 4.31445C358.714 4.31445 359.572 4.58984 360.193 5.14062C360.814 5.68555 361.137 6.43848 361.16 7.39941V11.7764C361.16 12.6494 361.271 13.3438 361.494 13.8594V14H359.789ZM357.091 12.7607C357.601 12.7607 358.084 12.6289 358.541 12.3652C358.998 12.1016 359.329 11.7588 359.534 11.3369V9.38574H358.26C356.268 9.38574 355.271 9.96875 355.271 11.1348C355.271 11.6445 355.441 12.043 355.781 12.3301C356.121 12.6172 356.558 12.7607 357.091 12.7607ZM369.58 13.0596C368.947 13.8037 368.019 14.1758 366.794 14.1758C365.78 14.1758 365.007 13.8828 364.474 13.2969C363.946 12.7051 363.68 11.832 363.674 10.6777V4.49023H365.3V10.6338C365.3 12.0752 365.886 12.7959 367.058 12.7959C368.3 12.7959 369.126 12.333 369.536 11.4072V4.49023H371.162V14H369.615L369.58 13.0596ZM379.178 11.4775C379.178 11.0381 379.011 10.6982 378.677 10.458C378.349 10.2119 377.771 10.001 376.945 9.8252C376.125 9.64941 375.472 9.43848 374.985 9.19238C374.505 8.94629 374.147 8.65332 373.913 8.31348C373.685 7.97363 373.57 7.56934 373.57 7.10059C373.57 6.32129 373.898 5.66211 374.555 5.12305C375.217 4.58398 376.061 4.31445 377.086 4.31445C378.164 4.31445 379.037 4.59277 379.705 5.14941C380.379 5.70605 380.716 6.41797 380.716 7.28516H379.081C379.081 6.83984 378.891 6.45605 378.51 6.13379C378.135 5.81152 377.66 5.65039 377.086 5.65039C376.494 5.65039 376.031 5.7793 375.697 6.03711C375.363 6.29492 375.196 6.63184 375.196 7.04785C375.196 7.44043 375.352 7.73633 375.662 7.93555C375.973 8.13477 376.532 8.3252 377.341 8.50684C378.155 8.68848 378.814 8.90527 379.318 9.15723C379.822 9.40918 380.194 9.71387 380.435 10.0713C380.681 10.4229 380.804 10.8535 380.804 11.3633C380.804 12.2129 380.464 12.8955 379.784 13.4111C379.104 13.9209 378.223 14.1758 377.139 14.1758C376.377 14.1758 375.703 14.041 375.117 13.7715C374.531 13.502 374.071 13.127 373.737 12.6465C373.409 12.1602 373.245 11.6357 373.245 11.0732H374.871C374.9 11.6182 375.117 12.0518 375.521 12.374C375.932 12.6904 376.471 12.8486 377.139 12.8486C377.754 12.8486 378.246 12.7256 378.615 12.4795C378.99 12.2275 379.178 11.8936 379.178 11.4775ZM386.868 14.1758C385.579 14.1758 384.53 13.7539 383.722 12.9102C382.913 12.0605 382.509 10.9268 382.509 9.50879V9.20996C382.509 8.2666 382.688 7.42578 383.045 6.6875C383.408 5.94336 383.912 5.36328 384.557 4.94727C385.207 4.52539 385.91 4.31445 386.666 4.31445C387.902 4.31445 388.863 4.72168 389.549 5.53613C390.234 6.35059 390.577 7.5166 390.577 9.03418V9.71094H384.135C384.158 10.6484 384.431 11.4072 384.952 11.9873C385.479 12.5615 386.147 12.8486 386.956 12.8486C387.53 12.8486 388.017 12.7314 388.415 12.4971C388.813 12.2627 389.162 11.9521 389.461 11.5654L390.454 12.3389C389.657 13.5635 388.462 14.1758 386.868 14.1758ZM386.666 5.65039C386.01 5.65039 385.459 5.89062 385.014 6.37109C384.568 6.8457 384.293 7.51367 384.188 8.375H388.951V8.25195C388.904 7.42578 388.682 6.78711 388.283 6.33594C387.885 5.87891 387.346 5.65039 386.666 5.65039ZM398.698 14H397.072V4.49023H398.698V14ZM396.94 1.96777C396.94 1.7041 397.02 1.48145 397.178 1.2998C397.342 1.11816 397.582 1.02734 397.898 1.02734C398.215 1.02734 398.455 1.11816 398.619 1.2998C398.783 1.48145 398.865 1.7041 398.865 1.96777C398.865 2.23145 398.783 2.45117 398.619 2.62695C398.455 2.80273 398.215 2.89062 397.898 2.89062C397.582 2.89062 397.342 2.80273 397.178 2.62695C397.02 2.45117 396.94 2.23145 396.94 1.96777ZM403.515 2.1875V4.49023H405.29V5.74707H403.515V11.6445C403.515 12.0254 403.594 12.3125 403.752 12.5059C403.91 12.6934 404.18 12.7871 404.561 12.7871C404.748 12.7871 405.006 12.752 405.334 12.6816V14C404.906 14.1172 404.49 14.1758 404.086 14.1758C403.359 14.1758 402.812 13.9561 402.442 13.5166C402.073 13.0771 401.889 12.4531 401.889 11.6445V5.74707H400.157V4.49023H401.889V2.1875H403.515ZM419.713 9.35059C419.713 10.8037 419.379 11.9727 418.711 12.8574C418.043 13.7363 417.146 14.1758 416.021 14.1758C414.82 14.1758 413.892 13.751 413.235 12.9014L413.156 14H411.662V0.5H413.288V5.53613C413.944 4.72168 414.85 4.31445 416.004 4.31445C417.158 4.31445 418.063 4.75098 418.72 5.62402C419.382 6.49707 419.713 7.69238 419.713 9.20996V9.35059ZM418.087 9.16602C418.087 8.05859 417.873 7.20312 417.445 6.59961C417.018 5.99609 416.402 5.69434 415.6 5.69434C414.527 5.69434 413.757 6.19238 413.288 7.18848V11.3018C413.786 12.2979 414.562 12.7959 415.617 12.7959C416.396 12.7959 417.003 12.4941 417.437 11.8906C417.87 11.2871 418.087 10.3789 418.087 9.16602ZM427.641 13.0596C427.008 13.8037 426.079 14.1758 424.854 14.1758C423.841 14.1758 423.067 13.8828 422.534 13.2969C422.007 12.7051 421.74 11.832 421.734 10.6777V4.49023H423.36V10.6338C423.36 12.0752 423.946 12.7959 425.118 12.7959C426.36 12.7959 427.187 12.333 427.597 11.4072V4.49023H429.223V14H427.676L427.641 13.0596ZM436.298 5.94922C436.052 5.9082 435.785 5.8877 435.498 5.8877C434.432 5.8877 433.708 6.3418 433.327 7.25V14H431.701V4.49023H433.283L433.31 5.58887C433.843 4.73926 434.599 4.31445 435.577 4.31445C435.894 4.31445 436.134 4.35547 436.298 4.4375V5.94922ZM439.339 4.49023L439.392 5.68555C440.118 4.77148 441.067 4.31445 442.239 4.31445C444.249 4.31445 445.263 5.44824 445.28 7.71582V14H443.654V7.70703C443.648 7.02148 443.49 6.51465 443.18 6.18652C442.875 5.8584 442.397 5.69434 441.747 5.69434C441.22 5.69434 440.757 5.83496 440.358 6.11621C439.96 6.39746 439.649 6.7666 439.427 7.22363V14H437.801V4.49023H439.339ZM453.27 11.4775C453.27 11.0381 453.103 10.6982 452.769 10.458C452.44 10.2119 451.863 10.001 451.037 9.8252C450.217 9.64941 449.563 9.43848 449.077 9.19238C448.597 8.94629 448.239 8.65332 448.005 8.31348C447.776 7.97363 447.662 7.56934 447.662 7.10059C447.662 6.32129 447.99 5.66211 448.646 5.12305C449.309 4.58398 450.152 4.31445 451.178 4.31445C452.256 4.31445 453.129 4.59277 453.797 5.14941C454.471 5.70605 454.808 6.41797 454.808 7.28516H453.173C453.173 6.83984 452.982 6.45605 452.602 6.13379C452.227 5.81152 451.752 5.65039 451.178 5.65039C450.586 5.65039 450.123 5.7793 449.789 6.03711C449.455 6.29492 449.288 6.63184 449.288 7.04785C449.288 7.44043 449.443 7.73633 449.754 7.93555C450.064 8.13477 450.624 8.3252 451.433 8.50684C452.247 8.68848 452.906 8.90527 453.41 9.15723C453.914 9.40918 454.286 9.71387 454.526 10.0713C454.772 10.4229 454.896 10.8535 454.896 11.3633C454.896 12.2129 454.556 12.8955 453.876 13.4111C453.196 13.9209 452.314 14.1758 451.23 14.1758C450.469 14.1758 449.795 14.041 449.209 13.7715C448.623 13.502 448.163 13.127 447.829 12.6465C447.501 12.1602 447.337 11.6357 447.337 11.0732H448.963C448.992 11.6182 449.209 12.0518 449.613 12.374C450.023 12.6904 450.562 12.8486 451.23 12.8486C451.846 12.8486 452.338 12.7256 452.707 12.4795C453.082 12.2275 453.27 11.8936 453.27 11.4775ZM4.3418 32.6182L6.55664 25.4902H8.29688L4.47363 36.4678C3.88184 38.0498 2.94141 38.8408 1.65234 38.8408L1.34473 38.8145L0.738281 38.7002V37.3818L1.17773 37.417C1.72852 37.417 2.15625 37.3057 2.46094 37.083C2.77148 36.8604 3.02637 36.4531 3.22559 35.8613L3.58594 34.8945L0.193359 25.4902H1.96875L4.3418 32.6182ZM9.18457 30.1572C9.18457 29.2256 9.36621 28.3877 9.72949 27.6436C10.0986 26.8994 10.6084 26.3252 11.2588 25.9209C11.915 25.5166 12.6621 25.3145 13.5 25.3145C14.7949 25.3145 15.8408 25.7627 16.6377 26.6592C17.4404 27.5557 17.8418 28.748 17.8418 30.2363V30.3506C17.8418 31.2764 17.6631 32.1084 17.3057 32.8467C16.9541 33.5791 16.4473 34.1504 15.7852 34.5605C15.1289 34.9707 14.373 35.1758 13.5176 35.1758C12.2285 35.1758 11.1826 34.7275 10.3799 33.8311C9.58301 32.9346 9.18457 31.748 9.18457 30.2715V30.1572ZM10.8193 30.3506C10.8193 31.4053 11.0625 32.252 11.5488 32.8906C12.041 33.5293 12.6973 33.8486 13.5176 33.8486C14.3438 33.8486 15 33.5264 15.4863 32.8818C15.9727 32.2314 16.2158 31.3232 16.2158 30.1572C16.2158 29.1143 15.9668 28.2705 15.4688 27.626C14.9766 26.9756 14.3203 26.6504 13.5 26.6504C12.6973 26.6504 12.0498 26.9697 11.5576 27.6084C11.0654 28.2471 10.8193 29.1611 10.8193 30.3506ZM25.752 34.0596C25.1191 34.8037 24.1904 35.1758 22.9658 35.1758C21.9521 35.1758 21.1787 34.8828 20.6455 34.2969C20.1182 33.7051 19.8516 32.832 19.8457 31.6777V25.4902H21.4717V31.6338C21.4717 33.0752 22.0576 33.7959 23.2295 33.7959C24.4717 33.7959 25.2979 33.333 25.708 32.4072V25.4902H27.334V35H25.7871L25.752 34.0596ZM34.4092 26.9492C34.1631 26.9082 33.8965 26.8877 33.6094 26.8877C32.543 26.8877 31.8193 27.3418 31.4385 28.25V35H29.8125V25.4902H31.3945L31.4209 26.5889C31.9541 25.7393 32.71 25.3145 33.6885 25.3145C34.0049 25.3145 34.2451 25.3555 34.4092 25.4375V26.9492ZM44.3232 35.1758C43.0342 35.1758 41.9854 34.7539 41.1768 33.9102C40.3682 33.0605 39.9639 31.9268 39.9639 30.5088V30.21C39.9639 29.2666 40.1426 28.4258 40.5 27.6875C40.8633 26.9434 41.3672 26.3633 42.0117 25.9473C42.6621 25.5254 43.3652 25.3145 44.1211 25.3145C45.3574 25.3145 46.3184 25.7217 47.0039 26.5361C47.6895 27.3506 48.0322 28.5166 48.0322 30.0342V30.7109H41.5898C41.6133 31.6484 41.8857 32.4072 42.4072 32.9873C42.9346 33.5615 43.6025 33.8486 44.4111 33.8486C44.9854 33.8486 45.4717 33.7314 45.8701 33.4971C46.2686 33.2627 46.6172 32.9521 46.916 32.5654L47.9092 33.3389C47.1123 34.5635 45.917 35.1758 44.3232 35.1758ZM44.1211 26.6504C43.4648 26.6504 42.9141 26.8906 42.4688 27.3711C42.0234 27.8457 41.748 28.5137 41.6426 29.375H46.4062V29.252C46.3594 28.4258 46.1367 27.7871 45.7383 27.3359C45.3398 26.8789 44.8008 26.6504 44.1211 26.6504ZM52.9102 32.6182L55.125 25.4902H56.8652L53.042 36.4678C52.4502 38.0498 51.5098 38.8408 50.2207 38.8408L49.9131 38.8145L49.3066 38.7002V37.3818L49.7461 37.417C50.2969 37.417 50.7246 37.3057 51.0293 37.083C51.3398 36.8604 51.5947 36.4531 51.7939 35.8613L52.1543 34.8945L48.7617 25.4902H50.5371L52.9102 32.6182ZM62.1475 35.1758C60.8584 35.1758 59.8096 34.7539 59.001 33.9102C58.1924 33.0605 57.7881 31.9268 57.7881 30.5088V30.21C57.7881 29.2666 57.9668 28.4258 58.3242 27.6875C58.6875 26.9434 59.1914 26.3633 59.8359 25.9473C60.4863 25.5254 61.1895 25.3145 61.9453 25.3145C63.1816 25.3145 64.1426 25.7217 64.8281 26.5361C65.5137 27.3506 65.8564 28.5166 65.8564 30.0342V30.7109H59.4141C59.4375 31.6484 59.71 32.4072 60.2314 32.9873C60.7588 33.5615 61.4268 33.8486 62.2354 33.8486C62.8096 33.8486 63.2959 33.7314 63.6943 33.4971C64.0928 33.2627 64.4414 32.9521 64.7402 32.5654L65.7334 33.3389C64.9365 34.5635 63.7412 35.1758 62.1475 35.1758ZM61.9453 26.6504C61.2891 26.6504 60.7383 26.8906 60.293 27.3711C59.8477 27.8457 59.5723 28.5137 59.4668 29.375H64.2305V29.252C64.1836 28.4258 63.9609 27.7871 63.5625 27.3359C63.1641 26.8789 62.625 26.6504 61.9453 26.6504ZM73.2832 32.4775C73.2832 32.0381 73.1162 31.6982 72.7822 31.458C72.4541 31.2119 71.877 31.001 71.0508 30.8252C70.2305 30.6494 69.5771 30.4385 69.0908 30.1924C68.6104 29.9463 68.2529 29.6533 68.0186 29.3135C67.79 28.9736 67.6758 28.5693 67.6758 28.1006C67.6758 27.3213 68.0039 26.6621 68.6602 26.123C69.3223 25.584 70.166 25.3145 71.1914 25.3145C72.2695 25.3145 73.1426 25.5928 73.8105 26.1494C74.4844 26.7061 74.8213 27.418 74.8213 28.2852H73.1865C73.1865 27.8398 72.9961 27.4561 72.6152 27.1338C72.2402 26.8115 71.7656 26.6504 71.1914 26.6504C70.5996 26.6504 70.1367 26.7793 69.8027 27.0371C69.4688 27.2949 69.3018 27.6318 69.3018 28.0479C69.3018 28.4404 69.457 28.7363 69.7676 28.9355C70.0781 29.1348 70.6377 29.3252 71.4463 29.5068C72.2607 29.6885 72.9199 29.9053 73.4238 30.1572C73.9277 30.4092 74.2998 30.7139 74.54 31.0713C74.7861 31.4229 74.9092 31.8535 74.9092 32.3633C74.9092 33.2129 74.5693 33.8955 73.8896 34.4111C73.21 34.9209 72.3281 35.1758 71.2441 35.1758C70.4824 35.1758 69.8086 35.041 69.2227 34.7715C68.6367 34.502 68.1768 34.127 67.8428 33.6465C67.5146 33.1602 67.3506 32.6357 67.3506 32.0732H68.9766C69.0059 32.6182 69.2227 33.0518 69.627 33.374C70.0371 33.6904 70.5762 33.8486 71.2441 33.8486C71.8594 33.8486 72.3516 33.7256 72.7207 33.4795C73.0957 33.2275 73.2832 32.8936 73.2832 32.4775ZM89.543 30.3506C89.543 31.8037 89.209 32.9727 88.541 33.8574C87.873 34.7363 86.9766 35.1758 85.8516 35.1758C84.6504 35.1758 83.7217 34.751 83.0654 33.9014L82.9863 35H81.4922V21.5H83.1182V26.5361C83.7744 25.7217 84.6797 25.3145 85.834 25.3145C86.9883 25.3145 87.8936 25.751 88.5498 26.624C89.2119 27.4971 89.543 28.6924 89.543 30.21V30.3506ZM87.917 30.166C87.917 29.0586 87.7031 28.2031 87.2754 27.5996C86.8477 26.9961 86.2324 26.6943 85.4297 26.6943C84.3574 26.6943 83.5869 27.1924 83.1182 28.1885V32.3018C83.6162 33.2979 84.3926 33.7959 85.4473 33.7959C86.2266 33.7959 86.833 33.4941 87.2666 32.8906C87.7002 32.2871 87.917 31.3789 87.917 30.166ZM97.4707 34.0596C96.8379 34.8037 95.9092 35.1758 94.6846 35.1758C93.6709 35.1758 92.8975 34.8828 92.3643 34.2969C91.8369 33.7051 91.5703 32.832 91.5645 31.6777V25.4902H93.1904V31.6338C93.1904 33.0752 93.7764 33.7959 94.9482 33.7959C96.1904 33.7959 97.0166 33.333 97.4268 32.4072V25.4902H99.0527V35H97.5059L97.4707 34.0596ZM103.737 23.1875V25.4902H105.513V26.7471H103.737V32.6445C103.737 33.0254 103.816 33.3125 103.975 33.5059C104.133 33.6934 104.402 33.7871 104.783 33.7871C104.971 33.7871 105.229 33.752 105.557 33.6816V35C105.129 35.1172 104.713 35.1758 104.309 35.1758C103.582 35.1758 103.034 34.9561 102.665 34.5166C102.296 34.0771 102.111 33.4531 102.111 32.6445V26.7471H100.38V25.4902H102.111V23.1875H103.737ZM114.091 23.1875V25.4902H115.866V26.7471H114.091V32.6445C114.091 33.0254 114.17 33.3125 114.328 33.5059C114.486 33.6934 114.756 33.7871 115.137 33.7871C115.324 33.7871 115.582 33.752 115.91 33.6816V35C115.482 35.1172 115.066 35.1758 114.662 35.1758C113.936 35.1758 113.388 34.9561 113.019 34.5166C112.649 34.0771 112.465 33.4531 112.465 32.6445V26.7471H110.733V25.4902H112.465V23.1875H114.091ZM119.399 26.6416C120.12 25.7568 121.058 25.3145 122.212 25.3145C124.222 25.3145 125.235 26.4482 125.253 28.7158V35H123.627V28.707C123.621 28.0215 123.463 27.5146 123.152 27.1865C122.848 26.8584 122.37 26.6943 121.72 26.6943C121.192 26.6943 120.729 26.835 120.331 27.1162C119.933 27.3975 119.622 27.7666 119.399 28.2236V35H117.773V21.5H119.399V26.6416ZM129.454 35H127.828V25.4902H129.454V35ZM127.696 22.9678C127.696 22.7041 127.775 22.4814 127.934 22.2998C128.098 22.1182 128.338 22.0273 128.654 22.0273C128.971 22.0273 129.211 22.1182 129.375 22.2998C129.539 22.4814 129.621 22.7041 129.621 22.9678C129.621 23.2314 129.539 23.4512 129.375 23.627C129.211 23.8027 128.971 23.8906 128.654 23.8906C128.338 23.8906 128.098 23.8027 127.934 23.627C127.775 23.4512 127.696 23.2314 127.696 22.9678ZM137.602 32.4775C137.602 32.0381 137.435 31.6982 137.101 31.458C136.772 31.2119 136.195 31.001 135.369 30.8252C134.549 30.6494 133.896 30.4385 133.409 30.1924C132.929 29.9463 132.571 29.6533 132.337 29.3135C132.108 28.9736 131.994 28.5693 131.994 28.1006C131.994 27.3213 132.322 26.6621 132.979 26.123C133.641 25.584 134.484 25.3145 135.51 25.3145C136.588 25.3145 137.461 25.5928 138.129 26.1494C138.803 26.7061 139.14 27.418 139.14 28.2852H137.505C137.505 27.8398 137.314 27.4561 136.934 27.1338C136.559 26.8115 136.084 26.6504 135.51 26.6504C134.918 26.6504 134.455 26.7793 134.121 27.0371C133.787 27.2949 133.62 27.6318 133.62 28.0479C133.62 28.4404 133.775 28.7363 134.086 28.9355C134.396 29.1348 134.956 29.3252 135.765 29.5068C136.579 29.6885 137.238 29.9053 137.742 30.1572C138.246 30.4092 138.618 30.7139 138.858 31.0713C139.104 31.4229 139.228 31.8535 139.228 32.3633C139.228 33.2129 138.888 33.8955 138.208 34.4111C137.528 34.9209 136.646 35.1758 135.562 35.1758C134.801 35.1758 134.127 35.041 133.541 34.7715C132.955 34.502 132.495 34.127 132.161 33.6465C131.833 33.1602 131.669 32.6357 131.669 32.0732H133.295C133.324 32.6182 133.541 33.0518 133.945 33.374C134.355 33.6904 134.895 33.8486 135.562 33.8486C136.178 33.8486 136.67 33.7256 137.039 33.4795C137.414 33.2275 137.602 32.8936 137.602 32.4775ZM147.577 35H145.951V21.5H147.577V35ZM151.954 35H150.328V25.4902H151.954V35ZM150.196 22.9678C150.196 22.7041 150.275 22.4814 150.434 22.2998C150.598 22.1182 150.838 22.0273 151.154 22.0273C151.471 22.0273 151.711 22.1182 151.875 22.2998C152.039 22.4814 152.121 22.7041 152.121 22.9678C152.121 23.2314 152.039 23.4512 151.875 23.627C151.711 23.8027 151.471 23.8906 151.154 23.8906C150.838 23.8906 150.598 23.8027 150.434 23.627C150.275 23.4512 150.196 23.2314 150.196 22.9678ZM160.102 32.4775C160.102 32.0381 159.935 31.6982 159.601 31.458C159.272 31.2119 158.695 31.001 157.869 30.8252C157.049 30.6494 156.396 30.4385 155.909 30.1924C155.429 29.9463 155.071 29.6533 154.837 29.3135C154.608 28.9736 154.494 28.5693 154.494 28.1006C154.494 27.3213 154.822 26.6621 155.479 26.123C156.141 25.584 156.984 25.3145 158.01 25.3145C159.088 25.3145 159.961 25.5928 160.629 26.1494C161.303 26.7061 161.64 27.418 161.64 28.2852H160.005C160.005 27.8398 159.814 27.4561 159.434 27.1338C159.059 26.8115 158.584 26.6504 158.01 26.6504C157.418 26.6504 156.955 26.7793 156.621 27.0371C156.287 27.2949 156.12 27.6318 156.12 28.0479C156.12 28.4404 156.275 28.7363 156.586 28.9355C156.896 29.1348 157.456 29.3252 158.265 29.5068C159.079 29.6885 159.738 29.9053 160.242 30.1572C160.746 30.4092 161.118 30.7139 161.358 31.0713C161.604 31.4229 161.728 31.8535 161.728 32.3633C161.728 33.2129 161.388 33.8955 160.708 34.4111C160.028 34.9209 159.146 35.1758 158.062 35.1758C157.301 35.1758 156.627 35.041 156.041 34.7715C155.455 34.502 154.995 34.127 154.661 33.6465C154.333 33.1602 154.169 32.6357 154.169 32.0732H155.795C155.824 32.6182 156.041 33.0518 156.445 33.374C156.855 33.6904 157.395 33.8486 158.062 33.8486C158.678 33.8486 159.17 33.7256 159.539 33.4795C159.914 33.2275 160.102 32.8936 160.102 32.4775ZM166.052 23.1875V25.4902H167.827V26.7471H166.052V32.6445C166.052 33.0254 166.131 33.3125 166.289 33.5059C166.447 33.6934 166.717 33.7871 167.098 33.7871C167.285 33.7871 167.543 33.752 167.871 33.6816V35C167.443 35.1172 167.027 35.1758 166.623 35.1758C165.896 35.1758 165.349 34.9561 164.979 34.5166C164.61 34.0771 164.426 33.4531 164.426 32.6445V26.7471H162.694V25.4902H164.426V23.1875H166.052ZM175.966 35H174.34V25.4902H175.966V35ZM174.208 22.9678C174.208 22.7041 174.287 22.4814 174.445 22.2998C174.609 22.1182 174.85 22.0273 175.166 22.0273C175.482 22.0273 175.723 22.1182 175.887 22.2998C176.051 22.4814 176.133 22.7041 176.133 22.9678C176.133 23.2314 176.051 23.4512 175.887 23.627C175.723 23.8027 175.482 23.8906 175.166 23.8906C174.85 23.8906 174.609 23.8027 174.445 23.627C174.287 23.4512 174.208 23.2314 174.208 22.9678ZM184.113 32.4775C184.113 32.0381 183.946 31.6982 183.612 31.458C183.284 31.2119 182.707 31.001 181.881 30.8252C181.061 30.6494 180.407 30.4385 179.921 30.1924C179.44 29.9463 179.083 29.6533 178.849 29.3135C178.62 28.9736 178.506 28.5693 178.506 28.1006C178.506 27.3213 178.834 26.6621 179.49 26.123C180.152 25.584 180.996 25.3145 182.021 25.3145C183.1 25.3145 183.973 25.5928 184.641 26.1494C185.314 26.7061 185.651 27.418 185.651 28.2852H184.017C184.017 27.8398 183.826 27.4561 183.445 27.1338C183.07 26.8115 182.596 26.6504 182.021 26.6504C181.43 26.6504 180.967 26.7793 180.633 27.0371C180.299 27.2949 180.132 27.6318 180.132 28.0479C180.132 28.4404 180.287 28.7363 180.598 28.9355C180.908 29.1348 181.468 29.3252 182.276 29.5068C183.091 29.6885 183.75 29.9053 184.254 30.1572C184.758 30.4092 185.13 30.7139 185.37 31.0713C185.616 31.4229 185.739 31.8535 185.739 32.3633C185.739 33.2129 185.399 33.8955 184.72 34.4111C184.04 34.9209 183.158 35.1758 182.074 35.1758C181.312 35.1758 180.639 35.041 180.053 34.7715C179.467 34.502 179.007 34.127 178.673 33.6465C178.345 33.1602 178.181 32.6357 178.181 32.0732H179.807C179.836 32.6182 180.053 33.0518 180.457 33.374C180.867 33.6904 181.406 33.8486 182.074 33.8486C182.689 33.8486 183.182 33.7256 183.551 33.4795C183.926 33.2275 184.113 32.8936 184.113 32.4775ZM200.373 30.3506C200.373 31.8037 200.039 32.9727 199.371 33.8574C198.703 34.7363 197.807 35.1758 196.682 35.1758C195.48 35.1758 194.552 34.751 193.896 33.9014L193.816 35H192.322V21.5H193.948V26.5361C194.604 25.7217 195.51 25.3145 196.664 25.3145C197.818 25.3145 198.724 25.751 199.38 26.624C200.042 27.4971 200.373 28.6924 200.373 30.21V30.3506ZM198.747 30.166C198.747 29.0586 198.533 28.2031 198.105 27.5996C197.678 26.9961 197.062 26.6943 196.26 26.6943C195.188 26.6943 194.417 27.1924 193.948 28.1885V32.3018C194.446 33.2979 195.223 33.7959 196.277 33.7959C197.057 33.7959 197.663 33.4941 198.097 32.8906C198.53 32.2871 198.747 31.3789 198.747 30.166ZM206.376 35.1758C205.087 35.1758 204.038 34.7539 203.229 33.9102C202.421 33.0605 202.017 31.9268 202.017 30.5088V30.21C202.017 29.2666 202.195 28.4258 202.553 27.6875C202.916 26.9434 203.42 26.3633 204.064 25.9473C204.715 25.5254 205.418 25.3145 206.174 25.3145C207.41 25.3145 208.371 25.7217 209.057 26.5361C209.742 27.3506 210.085 28.5166 210.085 30.0342V30.7109H203.643C203.666 31.6484 203.938 32.4072 204.46 32.9873C204.987 33.5615 205.655 33.8486 206.464 33.8486C207.038 33.8486 207.524 33.7314 207.923 33.4971C208.321 33.2627 208.67 32.9521 208.969 32.5654L209.962 33.3389C209.165 34.5635 207.97 35.1758 206.376 35.1758ZM206.174 26.6504C205.518 26.6504 204.967 26.8906 204.521 27.3711C204.076 27.8457 203.801 28.5137 203.695 29.375H208.459V29.252C208.412 28.4258 208.189 27.7871 207.791 27.3359C207.393 26.8789 206.854 26.6504 206.174 26.6504ZM214.181 23.1875V25.4902H215.956V26.7471H214.181V32.6445C214.181 33.0254 214.26 33.3125 214.418 33.5059C214.576 33.6934 214.846 33.7871 215.227 33.7871C215.414 33.7871 215.672 33.752 216 33.6816V35C215.572 35.1172 215.156 35.1758 214.752 35.1758C214.025 35.1758 213.478 34.9561 213.108 34.5166C212.739 34.0771 212.555 33.4531 212.555 32.6445V26.7471H210.823V25.4902H212.555V23.1875H214.181ZM220.069 23.1875V25.4902H221.845V26.7471H220.069V32.6445C220.069 33.0254 220.148 33.3125 220.307 33.5059C220.465 33.6934 220.734 33.7871 221.115 33.7871C221.303 33.7871 221.561 33.752 221.889 33.6816V35C221.461 35.1172 221.045 35.1758 220.641 35.1758C219.914 35.1758 219.366 34.9561 218.997 34.5166C218.628 34.0771 218.443 33.4531 218.443 32.6445V26.7471H216.712V25.4902H218.443V23.1875H220.069ZM227.698 35.1758C226.409 35.1758 225.36 34.7539 224.552 33.9102C223.743 33.0605 223.339 31.9268 223.339 30.5088V30.21C223.339 29.2666 223.518 28.4258 223.875 27.6875C224.238 26.9434 224.742 26.3633 225.387 25.9473C226.037 25.5254 226.74 25.3145 227.496 25.3145C228.732 25.3145 229.693 25.7217 230.379 26.5361C231.064 27.3506 231.407 28.5166 231.407 30.0342V30.7109H224.965C224.988 31.6484 225.261 32.4072 225.782 32.9873C226.31 33.5615 226.978 33.8486 227.786 33.8486C228.36 33.8486 228.847 33.7314 229.245 33.4971C229.644 33.2627 229.992 32.9521 230.291 32.5654L231.284 33.3389C230.487 34.5635 229.292 35.1758 227.698 35.1758ZM227.496 26.6504C226.84 26.6504 226.289 26.8906 225.844 27.3711C225.398 27.8457 225.123 28.5137 225.018 29.375H229.781V29.252C229.734 28.4258 229.512 27.7871 229.113 27.3359C228.715 26.8789 228.176 26.6504 227.496 26.6504ZM237.894 26.9492C237.647 26.9082 237.381 26.8877 237.094 26.8877C236.027 26.8877 235.304 27.3418 234.923 28.25V35H233.297V25.4902H234.879L234.905 26.5889C235.438 25.7393 236.194 25.3145 237.173 25.3145C237.489 25.3145 237.729 25.3555 237.894 25.4375V26.9492ZM246.999 32.7939L249.354 25.4902H251.016L247.605 35H246.366L242.921 25.4902H244.582L246.999 32.7939ZM254.347 35H252.721V25.4902H254.347V35ZM252.589 22.9678C252.589 22.7041 252.668 22.4814 252.826 22.2998C252.99 22.1182 253.23 22.0273 253.547 22.0273C253.863 22.0273 254.104 22.1182 254.268 22.2998C254.432 22.4814 254.514 22.7041 254.514 22.9678C254.514 23.2314 254.432 23.4512 254.268 23.627C254.104 23.8027 253.863 23.8906 253.547 23.8906C253.23 23.8906 252.99 23.8027 252.826 23.627C252.668 23.4512 252.589 23.2314 252.589 22.9678ZM260.903 35.1758C259.614 35.1758 258.565 34.7539 257.757 33.9102C256.948 33.0605 256.544 31.9268 256.544 30.5088V30.21C256.544 29.2666 256.723 28.4258 257.08 27.6875C257.443 26.9434 257.947 26.3633 258.592 25.9473C259.242 25.5254 259.945 25.3145 260.701 25.3145C261.938 25.3145 262.898 25.7217 263.584 26.5361C264.27 27.3506 264.612 28.5166 264.612 30.0342V30.7109H258.17C258.193 31.6484 258.466 32.4072 258.987 32.9873C259.515 33.5615 260.183 33.8486 260.991 33.8486C261.565 33.8486 262.052 33.7314 262.45 33.4971C262.849 33.2627 263.197 32.9521 263.496 32.5654L264.489 33.3389C263.692 34.5635 262.497 35.1758 260.903 35.1758ZM260.701 26.6504C260.045 26.6504 259.494 26.8906 259.049 27.3711C258.604 27.8457 258.328 28.5137 258.223 29.375H262.986V29.252C262.939 28.4258 262.717 27.7871 262.318 27.3359C261.92 26.8789 261.381 26.6504 260.701 26.6504ZM274.922 32.7588L276.75 25.4902H278.376L275.607 35H274.289L271.978 27.793L269.728 35H268.409L265.649 25.4902H267.267L269.139 32.6094L271.354 25.4902H272.663L274.922 32.7588ZM283.983 35.1758C282.694 35.1758 281.646 34.7539 280.837 33.9102C280.028 33.0605 279.624 31.9268 279.624 30.5088V30.21C279.624 29.2666 279.803 28.4258 280.16 27.6875C280.523 26.9434 281.027 26.3633 281.672 25.9473C282.322 25.5254 283.025 25.3145 283.781 25.3145C285.018 25.3145 285.979 25.7217 286.664 26.5361C287.35 27.3506 287.692 28.5166 287.692 30.0342V30.7109H281.25C281.273 31.6484 281.546 32.4072 282.067 32.9873C282.595 33.5615 283.263 33.8486 284.071 33.8486C284.646 33.8486 285.132 33.7314 285.53 33.4971C285.929 33.2627 286.277 32.9521 286.576 32.5654L287.569 33.3389C286.772 34.5635 285.577 35.1758 283.983 35.1758ZM283.781 26.6504C283.125 26.6504 282.574 26.8906 282.129 27.3711C281.684 27.8457 281.408 28.5137 281.303 29.375H286.066V29.252C286.02 28.4258 285.797 27.7871 285.398 27.3359C285 26.8789 284.461 26.6504 283.781 26.6504ZM289.187 30.166C289.187 28.707 289.532 27.5352 290.224 26.6504C290.915 25.7598 291.82 25.3145 292.939 25.3145C294.053 25.3145 294.935 25.6953 295.585 26.457V21.5H297.211V35H295.717L295.638 33.9805C294.987 34.7773 294.082 35.1758 292.922 35.1758C291.82 35.1758 290.921 34.7246 290.224 33.8223C289.532 32.9199 289.187 31.7422 289.187 30.2891V30.166ZM290.812 30.3506C290.812 31.4287 291.035 32.2725 291.48 32.8818C291.926 33.4912 292.541 33.7959 293.326 33.7959C294.357 33.7959 295.11 33.333 295.585 32.4072V28.0391C295.099 27.1426 294.352 26.6943 293.344 26.6943C292.547 26.6943 291.926 27.002 291.48 27.6172C291.035 28.2324 290.812 29.1436 290.812 30.3506ZM312.627 32.7588L314.455 25.4902H316.081L313.312 35H311.994L309.683 27.793L307.433 35H306.114L303.354 25.4902H304.972L306.844 32.6094L309.059 25.4902H310.368L312.627 32.7588ZM319.368 26.6416C320.089 25.7568 321.026 25.3145 322.181 25.3145C324.19 25.3145 325.204 26.4482 325.222 28.7158V35H323.596V28.707C323.59 28.0215 323.432 27.5146 323.121 27.1865C322.816 26.8584 322.339 26.6943 321.688 26.6943C321.161 26.6943 320.698 26.835 320.3 27.1162C319.901 27.3975 319.591 27.7666 319.368 28.2236V35H317.742V21.5H319.368V26.6416ZM331.603 35.1758C330.313 35.1758 329.265 34.7539 328.456 33.9102C327.647 33.0605 327.243 31.9268 327.243 30.5088V30.21C327.243 29.2666 327.422 28.4258 327.779 27.6875C328.143 26.9434 328.646 26.3633 329.291 25.9473C329.941 25.5254 330.645 25.3145 331.4 25.3145C332.637 25.3145 333.598 25.7217 334.283 26.5361C334.969 27.3506 335.312 28.5166 335.312 30.0342V30.7109H328.869C328.893 31.6484 329.165 32.4072 329.687 32.9873C330.214 33.5615 330.882 33.8486 331.69 33.8486C332.265 33.8486 332.751 33.7314 333.149 33.4971C333.548 33.2627 333.896 32.9521 334.195 32.5654L335.188 33.3389C334.392 34.5635 333.196 35.1758 331.603 35.1758ZM331.4 26.6504C330.744 26.6504 330.193 26.8906 329.748 27.3711C329.303 27.8457 329.027 28.5137 328.922 29.375H333.686V29.252C333.639 28.4258 333.416 27.7871 333.018 27.3359C332.619 26.8789 332.08 26.6504 331.4 26.6504ZM338.739 25.4902L338.792 26.6855C339.519 25.7715 340.468 25.3145 341.64 25.3145C343.649 25.3145 344.663 26.4482 344.681 28.7158V35H343.055V28.707C343.049 28.0215 342.891 27.5146 342.58 27.1865C342.275 26.8584 341.798 26.6943 341.147 26.6943C340.62 26.6943 340.157 26.835 339.759 27.1162C339.36 27.3975 339.05 27.7666 338.827 28.2236V35H337.201V25.4902H338.739ZM353.364 35H351.738V21.5H353.364V35ZM357.741 35H356.115V25.4902H357.741V35ZM355.983 22.9678C355.983 22.7041 356.062 22.4814 356.221 22.2998C356.385 22.1182 356.625 22.0273 356.941 22.0273C357.258 22.0273 357.498 22.1182 357.662 22.2998C357.826 22.4814 357.908 22.7041 357.908 22.9678C357.908 23.2314 357.826 23.4512 357.662 23.627C357.498 23.8027 357.258 23.8906 356.941 23.8906C356.625 23.8906 356.385 23.8027 356.221 23.627C356.062 23.4512 355.983 23.2314 355.983 22.9678ZM359.965 30.166C359.965 28.6836 360.308 27.5059 360.993 26.6328C361.679 25.7539 362.587 25.3145 363.718 25.3145C364.878 25.3145 365.783 25.7246 366.434 26.5449L366.513 25.4902H367.998V34.7715C367.998 36.002 367.632 36.9717 366.899 37.6807C366.173 38.3896 365.194 38.7441 363.964 38.7441C363.278 38.7441 362.607 38.5977 361.951 38.3047C361.295 38.0117 360.794 37.6104 360.448 37.1006L361.292 36.125C361.989 36.9863 362.842 37.417 363.85 37.417C364.641 37.417 365.256 37.1943 365.695 36.749C366.141 36.3037 366.363 35.6768 366.363 34.8682V34.0508C365.713 34.8008 364.825 35.1758 363.7 35.1758C362.587 35.1758 361.685 34.7275 360.993 33.8311C360.308 32.9346 359.965 31.7129 359.965 30.166ZM361.6 30.3506C361.6 31.4229 361.819 32.2666 362.259 32.8818C362.698 33.4912 363.313 33.7959 364.104 33.7959C365.13 33.7959 365.883 33.3301 366.363 32.3984V28.0566C365.865 27.1484 365.118 26.6943 364.122 26.6943C363.331 26.6943 362.713 27.002 362.268 27.6172C361.822 28.2324 361.6 29.1436 361.6 30.3506ZM372.085 26.6416C372.806 25.7568 373.743 25.3145 374.897 25.3145C376.907 25.3145 377.921 26.4482 377.938 28.7158V35H376.312V28.707C376.307 28.0215 376.148 27.5146 375.838 27.1865C375.533 26.8584 375.056 26.6943 374.405 26.6943C373.878 26.6943 373.415 26.835 373.017 27.1162C372.618 27.3975 372.308 27.7666 372.085 28.2236V35H370.459V21.5H372.085V26.6416ZM382.579 23.1875V25.4902H384.354V26.7471H382.579V32.6445C382.579 33.0254 382.658 33.3125 382.816 33.5059C382.975 33.6934 383.244 33.7871 383.625 33.7871C383.812 33.7871 384.07 33.752 384.398 33.6816V35C383.971 35.1172 383.555 35.1758 383.15 35.1758C382.424 35.1758 381.876 34.9561 381.507 34.5166C381.138 34.0771 380.953 33.4531 380.953 32.6445V26.7471H379.222V25.4902H380.953V23.1875H382.579ZM392.933 23.1875V25.4902H394.708V26.7471H392.933V32.6445C392.933 33.0254 393.012 33.3125 393.17 33.5059C393.328 33.6934 393.598 33.7871 393.979 33.7871C394.166 33.7871 394.424 33.752 394.752 33.6816V35C394.324 35.1172 393.908 35.1758 393.504 35.1758C392.777 35.1758 392.229 34.9561 391.86 34.5166C391.491 34.0771 391.307 33.4531 391.307 32.6445V26.7471H389.575V25.4902H391.307V23.1875H392.933ZM398.241 26.6416C398.962 25.7568 399.899 25.3145 401.054 25.3145C403.063 25.3145 404.077 26.4482 404.095 28.7158V35H402.469V28.707C402.463 28.0215 402.305 27.5146 401.994 27.1865C401.689 26.8584 401.212 26.6943 400.562 26.6943C400.034 26.6943 399.571 26.835 399.173 27.1162C398.774 27.3975 398.464 27.7666 398.241 28.2236V35H396.615V21.5H398.241V26.6416ZM410.476 35.1758C409.187 35.1758 408.138 34.7539 407.329 33.9102C406.521 33.0605 406.116 31.9268 406.116 30.5088V30.21C406.116 29.2666 406.295 28.4258 406.652 27.6875C407.016 26.9434 407.52 26.3633 408.164 25.9473C408.814 25.5254 409.518 25.3145 410.273 25.3145C411.51 25.3145 412.471 25.7217 413.156 26.5361C413.842 27.3506 414.185 28.5166 414.185 30.0342V30.7109H407.742C407.766 31.6484 408.038 32.4072 408.56 32.9873C409.087 33.5615 409.755 33.8486 410.563 33.8486C411.138 33.8486 411.624 33.7314 412.022 33.4971C412.421 33.2627 412.77 32.9521 413.068 32.5654L414.062 33.3389C413.265 34.5635 412.069 35.1758 410.476 35.1758ZM410.273 26.6504C409.617 26.6504 409.066 26.8906 408.621 27.3711C408.176 27.8457 407.9 28.5137 407.795 29.375H412.559V29.252C412.512 28.4258 412.289 27.7871 411.891 27.3359C411.492 26.8789 410.953 26.6504 410.273 26.6504ZM417.604 25.4902L417.647 26.5449C418.345 25.7246 419.285 25.3145 420.469 25.3145C421.799 25.3145 422.704 25.8242 423.185 26.8438C423.501 26.3867 423.911 26.0176 424.415 25.7363C424.925 25.4551 425.525 25.3145 426.217 25.3145C428.303 25.3145 429.363 26.4189 429.398 28.6279V35H427.772V28.7246C427.772 28.0449 427.617 27.5381 427.307 27.2041C426.996 26.8643 426.475 26.6943 425.742 26.6943C425.139 26.6943 424.638 26.876 424.239 27.2393C423.841 27.5967 423.609 28.0801 423.545 28.6895V35H421.91V28.7686C421.91 27.3857 421.233 26.6943 419.88 26.6943C418.813 26.6943 418.084 27.1484 417.691 28.0566V35H416.065V25.4902H417.604ZM435.806 35.1758C434.517 35.1758 433.468 34.7539 432.659 33.9102C431.851 33.0605 431.446 31.9268 431.446 30.5088V30.21C431.446 29.2666 431.625 28.4258 431.982 27.6875C432.346 26.9434 432.85 26.3633 433.494 25.9473C434.145 25.5254 434.848 25.3145 435.604 25.3145C436.84 25.3145 437.801 25.7217 438.486 26.5361C439.172 27.3506 439.515 28.5166 439.515 30.0342V30.7109H433.072C433.096 31.6484 433.368 32.4072 433.89 32.9873C434.417 33.5615 435.085 33.8486 435.894 33.8486C436.468 33.8486 436.954 33.7314 437.353 33.4971C437.751 33.2627 438.1 32.9521 438.398 32.5654L439.392 33.3389C438.595 34.5635 437.399 35.1758 435.806 35.1758ZM435.604 26.6504C434.947 26.6504 434.396 26.8906 433.951 27.3711C433.506 27.8457 433.23 28.5137 433.125 29.375H437.889V29.252C437.842 28.4258 437.619 27.7871 437.221 27.3359C436.822 26.8789 436.283 26.6504 435.604 26.6504ZM447.636 35H446.01V25.4902H447.636V35ZM445.878 22.9678C445.878 22.7041 445.957 22.4814 446.115 22.2998C446.279 22.1182 446.52 22.0273 446.836 22.0273C447.152 22.0273 447.393 22.1182 447.557 22.2998C447.721 22.4814 447.803 22.7041 447.803 22.9678C447.803 23.2314 447.721 23.4512 447.557 23.627C447.393 23.8027 447.152 23.8906 446.836 23.8906C446.52 23.8906 446.279 23.8027 446.115 23.627C445.957 23.4512 445.878 23.2314 445.878 22.9678ZM455.783 32.4775C455.783 32.0381 455.616 31.6982 455.282 31.458C454.954 31.2119 454.377 31.001 453.551 30.8252C452.73 30.6494 452.077 30.4385 451.591 30.1924C451.11 29.9463 450.753 29.6533 450.519 29.3135C450.29 28.9736 450.176 28.5693 450.176 28.1006C450.176 27.3213 450.504 26.6621 451.16 26.123C451.822 25.584 452.666 25.3145 453.691 25.3145C454.77 25.3145 455.643 25.5928 456.311 26.1494C456.984 26.7061 457.321 27.418 457.321 28.2852H455.687C455.687 27.8398 455.496 27.4561 455.115 27.1338C454.74 26.8115 454.266 26.6504 453.691 26.6504C453.1 26.6504 452.637 26.7793 452.303 27.0371C451.969 27.2949 451.802 27.6318 451.802 28.0479C451.802 28.4404 451.957 28.7363 452.268 28.9355C452.578 29.1348 453.138 29.3252 453.946 29.5068C454.761 29.6885 455.42 29.9053 455.924 30.1572C456.428 30.4092 456.8 30.7139 457.04 31.0713C457.286 31.4229 457.409 31.8535 457.409 32.3633C457.409 33.2129 457.069 33.8955 456.39 34.4111C455.71 34.9209 454.828 35.1758 453.744 35.1758C452.982 35.1758 452.309 35.041 451.723 34.7715C451.137 34.502 450.677 34.127 450.343 33.6465C450.015 33.1602 449.851 32.6357 449.851 32.0732H451.477C451.506 32.6182 451.723 33.0518 452.127 33.374C452.537 33.6904 453.076 33.8486 453.744 33.8486C454.359 33.8486 454.852 33.7256 455.221 33.4795C455.596 33.2275 455.783 32.8936 455.783 32.4775ZM463.562 30.1572C463.562 29.2256 463.743 28.3877 464.106 27.6436C464.476 26.8994 464.985 26.3252 465.636 25.9209C466.292 25.5166 467.039 25.3145 467.877 25.3145C469.172 25.3145 470.218 25.7627 471.015 26.6592C471.817 27.5557 472.219 28.748 472.219 30.2363V30.3506C472.219 31.2764 472.04 32.1084 471.683 32.8467C471.331 33.5791 470.824 34.1504 470.162 34.5605C469.506 34.9707 468.75 35.1758 467.895 35.1758C466.605 35.1758 465.56 34.7275 464.757 33.8311C463.96 32.9346 463.562 31.748 463.562 30.2715V30.1572ZM465.196 30.3506C465.196 31.4053 465.439 32.252 465.926 32.8906C466.418 33.5293 467.074 33.8486 467.895 33.8486C468.721 33.8486 469.377 33.5264 469.863 32.8818C470.35 32.2314 470.593 31.3232 470.593 30.1572C470.593 29.1143 470.344 28.2705 469.846 27.626C469.354 26.9756 468.697 26.6504 467.877 26.6504C467.074 26.6504 466.427 26.9697 465.935 27.6084C465.442 28.2471 465.196 29.1611 465.196 30.3506ZM475.796 25.4902L475.849 26.6855C476.575 25.7715 477.524 25.3145 478.696 25.3145C480.706 25.3145 481.72 26.4482 481.737 28.7158V35H480.111V28.707C480.105 28.0215 479.947 27.5146 479.637 27.1865C479.332 26.8584 478.854 26.6943 478.204 26.6943C477.677 26.6943 477.214 26.835 476.815 27.1162C476.417 27.3975 476.106 27.7666 475.884 28.2236V35H474.258V25.4902H475.796ZM484.225 34.1475C484.225 33.8662 484.307 33.6318 484.471 33.4443C484.641 33.2568 484.893 33.1631 485.227 33.1631C485.561 33.1631 485.812 33.2568 485.982 33.4443C486.158 33.6318 486.246 33.8662 486.246 34.1475C486.246 34.417 486.158 34.6426 485.982 34.8242C485.812 35.0059 485.561 35.0967 485.227 35.0967C484.893 35.0967 484.641 35.0059 484.471 34.8242C484.307 34.6426 484.225 34.417 484.225 34.1475Z" fill="white"/>
</svg>
