<svg width="100" height="100" viewBox="0 0 100 100" fill="none" xmlns="http://www.w3.org/2000/svg">
<rect width="100" height="100" rx="5" fill="black"/>
<path d="M18.4004 44.6445H12.3623V43.2559H18.4004V44.6445ZM19.8594 43.2031H21.9688L27.3125 57.0986H25.2031L19.8594 43.2031ZM35.293 57.6787H27.2334V56H35.293V57.6787ZM36.4531 50.7969C36.4531 49.4434 36.6348 48.1602 36.998 46.9473C37.3613 45.7285 37.8945 44.6416 38.5977 43.6865C39.3008 42.7256 40.0449 42.0518 40.8301 41.665L41.252 42.9131C40.4258 43.54 39.7549 44.498 39.2393 45.7871C38.7295 47.0703 38.4512 48.541 38.4043 50.1992L38.3955 50.9551C38.3955 52.7305 38.6445 54.3154 39.1426 55.71C39.6465 57.0986 40.3496 58.1562 41.252 58.8828L40.8301 60.0693C40.0449 59.6826 39.2979 59.0059 38.5889 58.0391C37.8857 57.0781 37.3525 55.9941 36.9893 54.7871C36.6318 53.5742 36.4531 52.2441 36.4531 50.7969ZM49.8115 42.464L48.4255 42.932C48.8755 43.868 49.9015 46.658 50.1895 47.684L51.5935 47.198C51.2875 46.19 50.2075 43.328 49.8115 42.464ZM57.8035 43.616L56.1475 43.148C55.7875 45.848 54.6895 48.728 53.2675 50.546C51.4495 52.85 48.7675 54.578 46.1935 55.334L47.4355 56.594C49.9735 55.694 52.6375 53.84 54.4915 51.392C55.9675 49.448 56.9395 46.874 57.4795 44.642C57.5515 44.354 57.6775 43.922 57.8035 43.616ZM44.7895 43.544L43.3675 44.066C43.7995 44.84 45.0415 47.882 45.3835 48.998L46.8055 48.476C46.3915 47.306 45.2575 44.552 44.7895 43.544ZM64.8154 50.9375C64.8154 52.2383 64.6367 53.4951 64.2793 54.708C63.9219 55.915 63.3799 57.0137 62.6533 58.0039C61.9268 59 61.168 59.6885 60.377 60.0693L59.9551 58.8828C60.834 58.2031 61.5283 57.166 62.0381 55.7715C62.5537 54.3711 62.8115 52.7744 62.8115 50.9814V50.7793C62.8115 49.1504 62.5889 47.668 62.1436 46.332C61.6982 44.9902 61.0596 43.915 60.2275 43.1064L59.9551 42.8604L60.377 41.665C61.127 42.0283 61.8535 42.6729 62.5566 43.5986C63.2598 44.5244 63.7988 45.5615 64.1738 46.71C64.5488 47.8525 64.7598 49.0332 64.8066 50.252L64.8154 50.9375ZM74.0352 57.6787H65.9756V56H74.0352V57.6787ZM75.7666 57.0986H74.0879L79.124 43.2031H80.8027L75.7666 57.0986ZM88.5898 44.6445H82.5518V43.2559H88.5898V44.6445Z" fill="white"/>
</svg>
