<svg width="100" height="100" viewBox="0 0 100 100" fill="none" xmlns="http://www.w3.org/2000/svg">
<rect width="100" height="100" rx="5" fill="black"/>
<path d="M18.1543 44.5566H12.248V43.2998H18.1543V44.5566ZM19.5957 43.2031H21.1426L26.4863 57.0986H24.9395L19.5957 43.2031ZM34.7129 57.3271H26.6621V56H34.7129V57.3271ZM35.917 50.8057C35.917 49.4814 36.0928 48.21 36.4443 46.9912C36.8018 45.7725 37.332 44.665 38.0352 43.6689C38.7383 42.6729 39.4678 41.9697 40.2236 41.5596L40.5576 42.6318C39.7021 43.2881 38.999 44.29 38.4482 45.6377C37.9033 46.9854 37.6045 48.4941 37.5518 50.1641L37.543 50.9111C37.543 53.1729 37.9561 55.1357 38.7822 56.7998C39.2803 57.7959 39.8721 58.5752 40.5576 59.1377L40.2236 60.1309C39.4443 59.6973 38.7002 58.9707 37.9912 57.9512C36.6084 55.959 35.917 53.5771 35.917 50.8057ZM49.1084 42.464L47.7224 42.932C48.1724 43.868 49.1984 46.658 49.4864 47.684L50.8904 47.198C50.5844 46.19 49.5044 43.328 49.1084 42.464ZM57.1004 43.616L55.4444 43.148C55.0844 45.848 53.9864 48.728 52.5644 50.546C50.7464 52.85 48.0644 54.578 45.4904 55.334L46.7324 56.594C49.2704 55.694 51.9344 53.84 53.7884 51.392C55.2644 49.448 56.2364 46.874 56.7764 44.642C56.8484 44.354 56.9744 43.922 57.1004 43.616ZM44.0864 43.544L42.6644 44.066C43.0964 44.84 44.3384 47.882 44.6804 48.998L46.1024 48.476C45.6884 47.306 44.5544 44.552 44.0864 43.544ZM63.8838 50.8936C63.8838 52.2002 63.7109 53.4541 63.3652 54.6553C63.0254 55.8506 62.501 56.9551 61.792 57.9688C61.0889 58.9824 60.3506 59.7031 59.5771 60.1309L59.2344 59.1377C60.1367 58.4463 60.8604 57.374 61.4053 55.9209C61.9561 54.4619 62.2373 52.8447 62.249 51.0693V50.7881C62.249 49.5576 62.1201 48.415 61.8623 47.3604C61.6045 46.2998 61.2441 45.3506 60.7812 44.5127C60.3242 43.6748 59.8086 43.0215 59.2344 42.5527L59.5771 41.5596C60.3506 41.9873 61.0859 42.7021 61.7832 43.7041C62.4863 44.7061 63.0107 45.8105 63.3564 47.0176C63.708 48.2246 63.8838 49.5166 63.8838 50.8936ZM73.2441 57.3271H65.1934V56H73.2441V57.3271ZM74.835 57.0986H73.4375L78.7812 43.2031H80.1699L74.835 57.0986ZM87.8516 44.5566H81.9453V43.2998H87.8516V44.5566Z" fill="white"/>
</svg>
